<?xml version="1.0" encoding="UTF-8" standalone="no"?>
<!-- Created with Inkscape (http://www.inkscape.org/) -->

<svg
   xmlns:dc="http://purl.org/dc/elements/1.1/"
   xmlns:cc="http://creativecommons.org/ns#"
   xmlns:rdf="http://www.w3.org/1999/02/22-rdf-syntax-ns#"
   xmlns:svg="http://www.w3.org/2000/svg"
   xmlns="http://www.w3.org/2000/svg"
   xmlns:sodipodi="http://sodipodi.sourceforge.net/DTD/sodipodi-0.dtd"
   xmlns:inkscape="http://www.inkscape.org/namespaces/inkscape"
   id="svg2"
   version="1.1"
   inkscape:version="0.91 r13725"
   xml:space="preserve"
   width="80"
   height="80"
   viewBox="0 0 80 80"
   sodipodi:docname="glove.ai.svg"
   inkscape:export-filename="/home/dallasarivle/Documents/plantown/aset/astaga.png"
   inkscape:export-xdpi="90"
   inkscape:export-ydpi="90"><metadata
     id="metadata8"><rdf:RDF><cc:Work
         rdf:about=""><dc:format>image/svg+xml</dc:format><dc:type
           rdf:resource="http://purl.org/dc/dcmitype/StillImage" /><dc:title></dc:title></cc:Work></rdf:RDF></metadata><defs
     id="defs6"><clipPath
       clipPathUnits="userSpaceOnUse"
       id="clipPath18"><path
         d="m 0,799.92 799.92,0 L 799.92,0 0,0 0,799.92 Z"
         id="path20"
         inkscape:connector-curvature="0" /></clipPath><clipPath
       clipPathUnits="userSpaceOnUse"
       id="clipPath476"><path
         d="m 0,799.92 799.92,0 L 799.92,0 0,0 0,799.92 Z"
         id="path478"
         inkscape:connector-curvature="0" /></clipPath></defs><sodipodi:namedview
     pagecolor="#ffffff"
     bordercolor="#666666"
     borderopacity="1"
     objecttolerance="10"
     gridtolerance="10"
     guidetolerance="10"
     inkscape:pageopacity="0"
     inkscape:pageshadow="2"
     inkscape:window-width="1366"
     inkscape:window-height="710"
     id="namedview4"
     showgrid="false"
     inkscape:zoom="3.7763775"
     inkscape:cx="35.033338"
     inkscape:cy="29.991945"
     inkscape:window-x="0"
     inkscape:window-y="27"
     inkscape:window-maximized="1"
     inkscape:current-layer="g10" /><g
     id="g10"
     inkscape:groupmode="layer"
     inkscape:label="12903-NON0OS"
     transform="matrix(1.25,0,0,-1.25,0,79.999976)"><g
       id="g5577"
       transform="matrix(1.0067429,0,0,1.0067429,8.4587862,-0.42987219)"><g
         style="fill:#0085ff;fill-opacity:1"
         transform="matrix(0.33319065,0,0,0.33892607,3.126199,16.913252)"
         id="g154"><path
           inkscape:connector-curvature="0"
           id="path156"
           style="fill:#0085ff;fill-opacity:1;fill-rule:evenodd;stroke:none"
           d="m 0,0 46.552,-13.921 6.824,22.822 c 2.396,8.014 14.085,19.569 17.396,30.643 L 83.261,81.306 90.943,107 c 0.87,2.909 -0.797,6.001 -3.708,6.871 -2.909,0.87 -6.002,-0.798 -6.871,-3.707 L 72.681,84.469 c -1.009,-3.371 -5.12,-2.805 -3.93,1.176 l 11.118,37.18 c 0.87,2.91 -0.799,6.002 -3.708,6.872 l -0.001,0 c -2.909,0.87 -6.001,-0.799 -6.871,-3.708 L 58.171,88.808 C 57.152,85.404 53.169,86.4 54.24,89.983 l 12.294,41.11 c 0.87,2.91 -0.798,6.003 -3.707,6.873 l -10e-4,0 c -2.909,0.869 -6.002,-0.799 -6.872,-3.708 L 43.66,93.146 c -0.972,-3.25 -4.827,-1.83 -3.93,1.176 l 10.667,35.67 c 0.871,2.91 -0.798,6.001 -3.707,6.872 l -10e-4,0 c -2.91,0.869 -6.001,-0.799 -6.871,-3.709 L 29.151,97.485 22.1,73.905 c -1.865,-6.235 -8.929,-4.878 -9.971,1.998 l -2.495,22.79 c -0.96,8.783 -11.897,7.199 -10.978,-1.202 l 4.77,-43.56 C 5.239,37.36 11.693,39.105 5.504,18.406 L 0,0 Z" /></g><g
         style="fill:#00b6ff;fill-opacity:1"
         transform="matrix(0.33319065,0,0,0.33892607,3.126199,16.913252)"
         id="g158"><path
           inkscape:connector-curvature="0"
           id="path160"
           style="fill:#00b6ff;fill-opacity:1;fill-rule:evenodd;stroke:none"
           d="M 0,0 46.552,-13.921 51.782,3.571 5.23,17.491 0,0 Z" /></g><g
         style="fill:#7edfff;fill-opacity:1"
         transform="matrix(0.33319065,0,0,0.33892607,6.1707952,21.784976)"
         id="g162"><path
           inkscape:connector-curvature="0"
           id="path164"
           style="fill:#7edfff;fill-opacity:1;fill-rule:evenodd;stroke:none"
           d="M 0,0 0,0 C 0.511,-0.153 0.805,-0.696 0.651,-1.207 L -3.027,-13.51 c -0.154,-0.511 -0.696,-0.803 -1.207,-0.65 -0.511,0.152 -0.804,0.695 -0.652,1.207 l 3.679,12.302 C -1.054,-0.141 -0.511,0.152 0,0" /></g><g
         style="fill:#7edfff;fill-opacity:1"
         transform="matrix(0.33319065,0,0,0.33892607,7.7394569,21.307701)"
         id="g166"><path
           inkscape:connector-curvature="0"
           id="path168"
           style="fill:#7edfff;fill-opacity:1;fill-rule:evenodd;stroke:none"
           d="m 0,0 0,0 c 0.512,-0.153 0.805,-0.695 0.651,-1.207 l -3.678,-12.302 c -0.153,-0.511 -0.696,-0.804 -1.207,-0.651 -0.511,0.152 -0.804,0.695 -0.651,1.207 l 3.679,12.302 C -1.054,-0.141 -0.511,0.152 0,0" /></g><g
         transform="matrix(0.33319065,0,0,0.33892607,9.3084516,20.830425)"
         id="g170"><path
           inkscape:connector-curvature="0"
           id="path172"
           style="fill:#ffc654;fill-opacity:1;fill-rule:evenodd;stroke:none"
           d="m 0,0 0,0 c 0.511,-0.152 0.804,-0.695 0.651,-1.207 l -3.678,-12.302 c -0.154,-0.511 -0.697,-0.804 -1.207,-0.651 -0.511,0.152 -0.804,0.696 -0.652,1.207 l 3.679,12.302 C -1.054,-0.14 -0.512,0.152 0,0" /></g><g
         transform="matrix(0.33319065,0,0,0.33892607,10.877113,20.353149)"
         id="g174"><path
           inkscape:connector-curvature="0"
           id="path176"
           style="fill:#ffc654;fill-opacity:1;fill-rule:evenodd;stroke:none"
           d="m 0,0 0,0 c 0.512,-0.152 0.805,-0.695 0.651,-1.206 l -3.678,-12.303 c -0.153,-0.511 -0.696,-0.804 -1.207,-0.651 -0.511,0.153 -0.804,0.696 -0.652,1.207 L -1.207,-0.65 C -1.054,-0.14 -0.511,0.153 0,0" /></g><g
         transform="matrix(0.33319065,0,0,0.33892607,12.446108,19.875873)"
         id="g178"><path
           inkscape:connector-curvature="0"
           id="path180"
           style="fill:#ffc654;fill-opacity:1;fill-rule:evenodd;stroke:none"
           d="m 0,0 0,0 c 0.511,-0.152 0.804,-0.695 0.65,-1.206 l -3.678,-12.302 c -0.153,-0.512 -0.696,-0.805 -1.206,-0.652 -0.512,0.153 -0.805,0.696 -0.652,1.207 L -1.207,-0.65 C -1.055,-0.14 -0.512,0.153 0,0" /></g><g
         transform="matrix(0.33319065,0,0,0.33892607,14.01477,19.398936)"
         id="g182"><path
           inkscape:connector-curvature="0"
           id="path184"
           style="fill:#ffc654;fill-opacity:1;fill-rule:evenodd;stroke:none"
           d="m 0,0 0,0 c 0.511,-0.153 0.804,-0.696 0.651,-1.207 l -3.678,-12.302 c -0.154,-0.512 -0.697,-0.804 -1.207,-0.651 -0.511,0.153 -0.804,0.696 -0.652,1.207 l 3.679,12.302 C -1.054,-0.14 -0.511,0.153 0,0" /></g><g
         transform="matrix(0.33319065,0,0,0.33892607,15.583431,18.921661)"
         id="g186"><path
           inkscape:connector-curvature="0"
           id="path188"
           style="fill:#ffc654;fill-opacity:1;fill-rule:evenodd;stroke:none"
           d="m 0,0 0,0 c 0.512,-0.153 0.805,-0.695 0.651,-1.206 l -3.678,-12.303 c -0.153,-0.511 -0.696,-0.804 -1.207,-0.651 -0.511,0.153 -0.804,0.696 -0.651,1.207 l 3.678,12.302 C -1.054,-0.14 -0.511,0.153 0,0" /></g><g
         transform="matrix(0.33319065,0,0,0.33892607,17.152425,18.444725)"
         id="g190"><path
           inkscape:connector-curvature="0"
           id="path192"
           style="fill:#ffc654;fill-opacity:1;fill-rule:evenodd;stroke:none"
           d="M 0,0 0,0 C 0.511,-0.153 0.804,-0.696 0.65,-1.207 L -3.028,-13.51 c -0.153,-0.511 -0.696,-0.803 -1.206,-0.65 -0.512,0.152 -0.805,0.695 -0.652,1.206 l 3.679,12.302 C -1.055,-0.141 -0.512,0.152 0,0" /></g><g
         transform="matrix(0.33319065,0,0,0.33892607,18.721088,17.967448)"
         id="g194"><path
           inkscape:connector-curvature="0"
           id="path196"
           style="fill:#ffc654;fill-opacity:1;fill-rule:evenodd;stroke:none"
           d="M 0,0 0,0 C 0.511,-0.153 0.805,-0.696 0.651,-1.207 L -3.027,-13.51 c -0.154,-0.511 -0.696,-0.803 -1.207,-0.65 -0.511,0.152 -0.804,0.695 -0.652,1.207 l 3.679,12.302 C -1.054,-0.141 -0.511,0.152 0,0" /></g><g
         style="fill:#ffffff;fill-opacity:1;stroke:#ffffff;stroke-width:4.41806984;stroke-miterlimit:4;stroke-dasharray:none;stroke-opacity:1"
         transform="matrix(0.32207015,0,0,0.32761414,2.9323138,13.805134)"
         id="g198"><path
           inkscape:connector-curvature="0"
           id="path200"
           style="fill:#ffffff;fill-opacity:1;stroke:#ffffff;stroke-width:4.41806984;stroke-linecap:round;stroke-linejoin:round;stroke-miterlimit:4;stroke-dasharray:none;stroke-opacity:1"
           d="m 0,0 35.722,-32.937 16.147,17.513 c 5.67,6.15 21.242,11.403 29.077,19.901 l 29.548,32.045 18.179,19.718 c 2.059,2.233 1.917,5.742 -0.316,7.802 l -0.001,0 c -2.232,2.059 -5.743,1.915 -7.801,-0.317 L 102.376,44.009 c -2.386,-2.588 -5.832,-0.275 -3.017,2.779 l 26.307,28.532 c 2.059,2.233 1.916,5.743 -0.316,7.802 -2.233,2.059 -5.745,1.916 -7.803,-0.316 L 91.241,54.274 c -2.408,-2.612 -5.551,0.032 -3.015,2.781 l 29.087,31.546 c 2.058,2.233 1.916,5.744 -0.317,7.801 l -10e-4,0 c -2.231,2.06 -5.743,1.916 -7.802,-0.315 L 80.107,64.54 c -2.3,-2.495 -5.142,0.474 -3.015,2.78 l 25.237,27.371 c 2.06,2.235 1.916,5.745 -0.316,7.803 l -0.001,0 c -2.233,2.059 -5.742,1.916 -7.801,-0.316 L 68.973,74.806 52.289,56.711 c -4.411,-4.784 -10.164,-0.465 -8.083,6.171 l 7.759,21.574 c 2.991,8.313 -7.531,11.689 -10.391,3.737 L 26.743,46.957 C 21.103,31.271 27.667,30.008 13.022,14.124 L 0,0 Z" /></g><g
         style="fill:#0085ff;fill-opacity:1"
         transform="matrix(0.33319065,0,0,0.33892607,2.9417114,12.080574)"
         id="g202"><path
           inkscape:connector-curvature="0"
           id="path204"
           style="fill:#0085ff;fill-opacity:1;fill-rule:evenodd;stroke:none"
           d="m 0,0 35.722,-32.937 16.147,17.513 c 5.67,6.15 21.242,11.403 29.077,19.901 l 29.548,32.045 18.179,19.718 c 2.059,2.233 1.917,5.742 -0.316,7.802 l -0.001,0 c -2.232,2.059 -5.743,1.915 -7.801,-0.317 L 102.376,44.009 c -2.386,-2.588 -5.832,-0.275 -3.017,2.779 l 26.307,28.532 c 2.059,2.233 1.916,5.743 -0.316,7.802 -2.233,2.059 -5.745,1.916 -7.803,-0.316 L 91.241,54.274 c -2.408,-2.612 -5.551,0.032 -3.015,2.781 l 29.087,31.546 c 2.058,2.233 1.916,5.744 -0.317,7.801 l -10e-4,0 c -2.231,2.06 -5.743,1.916 -7.802,-0.315 L 80.107,64.54 c -2.3,-2.495 -5.142,0.474 -3.015,2.78 l 25.237,27.371 c 2.06,2.235 1.916,5.745 -0.316,7.803 l -0.001,0 c -2.233,2.059 -5.742,1.916 -7.801,-0.316 L 68.973,74.806 52.289,56.711 c -4.411,-4.784 -10.164,-0.465 -8.083,6.171 l 7.759,21.574 c 2.991,8.313 -7.531,11.689 -10.391,3.737 L 26.743,46.957 C 21.103,31.271 27.667,30.008 13.022,14.124 L 0,0 Z" /></g><g
         style="fill:#00b6ff;fill-opacity:1"
         transform="matrix(0.33319065,0,0,0.33892607,2.9417114,12.080574)"
         id="g206"><path
           inkscape:connector-curvature="0"
           id="path208"
           style="fill:#00b6ff;fill-opacity:1;fill-rule:evenodd;stroke:none"
           d="M 0,0 35.722,-32.937 48.098,-19.515 12.376,13.422 0,0 Z" /></g><g
         style="fill:#7edfff;fill-opacity:1"
         transform="matrix(0.33319065,0,0,0.33892607,7.7791398,15.099151)"
         id="g210"><path
           inkscape:connector-curvature="0"
           id="path212"
           style="fill:#7edfff;fill-opacity:1;fill-rule:evenodd;stroke:none"
           d="m 0,0 0,0 c 0.392,-0.361 0.417,-0.979 0.056,-1.37 l -8.704,-9.441 c -0.363,-0.392 -0.979,-0.417 -1.371,-0.055 -0.392,0.362 -0.418,0.977 -0.055,1.37 l 8.704,9.44 C -1.009,0.336 -0.393,0.361 0,0" /></g><g
         style="fill:#7edfff;fill-opacity:1"
         transform="matrix(0.33319065,0,0,0.33892607,8.9827244,13.969816)"
         id="g214"><path
           inkscape:connector-curvature="0"
           id="path216"
           style="fill:#7edfff;fill-opacity:1;fill-rule:evenodd;stroke:none"
           d="m 0,0 0,0 c 0.393,-0.361 0.418,-0.978 0.056,-1.369 l -8.704,-9.441 c -0.362,-0.392 -0.978,-0.417 -1.371,-0.055 -0.391,0.361 -0.417,0.977 -0.055,1.37 l 8.704,9.44 C -1.008,0.337 -0.392,0.362 0,0" /></g><g
         style="fill:#7edfff;fill-opacity:1"
         transform="matrix(0.33319065,0,0,0.33892607,10.186642,12.840853)"
         id="g218"><path
           inkscape:connector-curvature="0"
           id="path220"
           style="fill:#7edfff;fill-opacity:1;fill-rule:evenodd;stroke:none"
           d="m 0,0 0,0 c 0.393,-0.361 0.418,-0.978 0.056,-1.37 l -8.704,-9.44 c -0.362,-0.392 -0.978,-0.418 -1.371,-0.056 -0.391,0.362 -0.417,0.978 -0.055,1.371 l 8.704,9.439 C -1.008,0.337 -0.393,0.362 0,0" /></g><g
         style="fill:#7edfff;fill-opacity:1"
         transform="matrix(0.33319065,0,0,0.33892607,11.39056,11.711856)"
         id="g222"><path
           inkscape:connector-curvature="0"
           id="path224"
           style="fill:#7edfff;fill-opacity:1;fill-rule:evenodd;stroke:none"
           d="m 0,0 0,0 c 0.392,-0.361 0.417,-0.979 0.056,-1.37 l -8.704,-9.441 c -0.362,-0.392 -0.979,-0.417 -1.371,-0.055 -0.392,0.362 -0.417,0.978 -0.055,1.37 l 8.704,9.44 C -1.009,0.337 -0.393,0.361 0,0" /></g><g
         style="fill:#7edfff;fill-opacity:1"
         transform="matrix(0.33319065,0,0,0.33892607,12.594477,10.582894)"
         id="g226"><path
           inkscape:connector-curvature="0"
           id="path228"
           style="fill:#7edfff;fill-opacity:1;fill-rule:evenodd;stroke:none"
           d="m 0,0 0,0 c 0.392,-0.362 0.417,-0.979 0.055,-1.37 l -8.703,-9.441 c -0.363,-0.392 -0.979,-0.417 -1.372,-0.055 -0.391,0.361 -0.417,0.978 -0.054,1.37 l 8.704,9.44 C -1.009,0.337 -0.393,0.361 0,0" /></g><g
         style="fill:#7edfff;fill-opacity:1"
         transform="matrix(0.33319065,0,0,0.33892607,13.798062,9.4538965)"
         id="g230"><path
           inkscape:connector-curvature="0"
           id="path232"
           style="fill:#7edfff;fill-opacity:1;fill-rule:evenodd;stroke:none"
           d="m 0,0 0,0 c 0.393,-0.362 0.417,-0.979 0.056,-1.371 l -8.704,-9.44 c -0.362,-0.392 -0.978,-0.418 -1.371,-0.055 -0.392,0.361 -0.417,0.977 -0.055,1.37 l 8.704,9.439 C -1.009,0.336 -0.392,0.361 0,0" /></g><g
         style="fill:#7edfff;fill-opacity:1"
         transform="matrix(0.33319065,0,0,0.33892607,15.001981,8.3245952)"
         id="g234"><path
           inkscape:connector-curvature="0"
           id="path236"
           style="fill:#7edfff;fill-opacity:1;fill-rule:evenodd;stroke:none"
           d="m 0,0 0,0 c 0.393,-0.361 0.417,-0.978 0.056,-1.37 l -8.704,-9.44 c -0.362,-0.392 -0.978,-0.418 -1.371,-0.055 -0.392,0.361 -0.417,0.977 -0.055,1.37 l 8.704,9.439 C -1.009,0.337 -0.392,0.362 0,0" /></g><g
         style="fill:#7edfff;fill-opacity:1"
         transform="matrix(0.33319065,0,0,0.33892607,16.205864,7.1955985)"
         id="g238"><path
           inkscape:connector-curvature="0"
           id="path240"
           style="fill:#7edfff;fill-opacity:1;fill-rule:evenodd;stroke:none"
           d="m 0,0 0,0 c 0.392,-0.361 0.417,-0.978 0.056,-1.37 l -8.704,-9.44 c -0.363,-0.392 -0.979,-0.418 -1.371,-0.056 -0.392,0.361 -0.418,0.978 -0.056,1.371 l 8.705,9.439 C -1.009,0.337 -0.393,0.362 0,0" /></g><g
         style="fill:#7edfff;fill-opacity:1"
         transform="matrix(0.33319065,0,0,0.33892607,17.409449,6.0666358)"
         id="g242"><path
           inkscape:connector-curvature="0"
           id="path244"
           style="fill:#7edfff;fill-opacity:1;fill-rule:evenodd;stroke:none"
           d="m 0,0 0,0 c 0.393,-0.361 0.418,-0.979 0.056,-1.371 l -8.704,-9.44 c -0.362,-0.392 -0.978,-0.417 -1.371,-0.055 -0.391,0.361 -0.417,0.978 -0.055,1.37 l 8.704,9.44 C -1.008,0.337 -0.392,0.361 0,0" /></g></g></g></svg>