<?xml version="1.0" encoding="UTF-8" standalone="no"?>
<!-- Created with Inkscape (http://www.inkscape.org/) -->

<svg
   xmlns:dc="http://purl.org/dc/elements/1.1/"
   xmlns:cc="http://creativecommons.org/ns#"
   xmlns:rdf="http://www.w3.org/1999/02/22-rdf-syntax-ns#"
   xmlns:svg="http://www.w3.org/2000/svg"
   xmlns="http://www.w3.org/2000/svg"
   xmlns:sodipodi="http://sodipodi.sourceforge.net/DTD/sodipodi-0.dtd"
   xmlns:inkscape="http://www.inkscape.org/namespaces/inkscape"
   id="svg2"
   version="1.1"
   inkscape:version="0.91 r13725"
   xml:space="preserve"
   width="300"
   height="100"
   viewBox="0 0 300 100"
   sodipodi:docname="tebasanClurit.svg"
   inkscape:export-filename="/home/dallasarivle/Documents/plantown/aset/gif/cluritTebasAngin.png"
   inkscape:export-xdpi="90"
   inkscape:export-ydpi="90"
   style="enable-background:new"><metadata
     id="metadata8"><rdf:RDF><cc:Work
         rdf:about=""><dc:format>image/svg+xml</dc:format><dc:type
           rdf:resource="http://purl.org/dc/dcmitype/StillImage" /><dc:title></dc:title></cc:Work></rdf:RDF></metadata><defs
     id="defs6"><filter
       inkscape:collect="always"
       style="color-interpolation-filters:sRGB"
       id="filter4288"><feBlend
         inkscape:collect="always"
         mode="multiply"
         in2="BackgroundImage"
         id="feBlend4290" /></filter></defs><sodipodi:namedview
     pagecolor="#ffffff"
     bordercolor="#666666"
     borderopacity="1"
     objecttolerance="10"
     gridtolerance="10"
     guidetolerance="10"
     inkscape:pageopacity="0"
     inkscape:pageshadow="2"
     inkscape:window-width="1366"
     inkscape:window-height="713"
     id="namedview4"
     showgrid="false"
     inkscape:zoom="1.5223888"
     inkscape:cx="103.49549"
     inkscape:cy="13.19801"
     inkscape:window-x="0"
     inkscape:window-y="27"
     inkscape:window-maximized="1"
     inkscape:current-layer="layer1" /><g
     inkscape:groupmode="layer"
     id="layer2"
     inkscape:label="warna"
     style="display:inline"
     transform="translate(0,20)" /><g
     inkscape:groupmode="layer"
     id="layer3"
     inkscape:label="bayangan"
     style="opacity:0.43600003;filter:url(#filter4288)"
     transform="translate(0,20)" /><g
     inkscape:groupmode="layer"
     id="layer1"
     inkscape:label="garis"
     transform="translate(0,20)"><g
       id="g4150"
       transform="translate(-367.9312,6.5980317)"><path
         inkscape:connector-curvature="0"
         id="path4168"
         d="m 249.99697,45.13645 11.77469,0.05949 1.93663,4.045759 -1.31691,16.183029 -2.16901,0.535469 -10.84511,-0.356979 -1.31691,-3.68878 0.0775,-13.68418 z"
         style="display:inline;fill:#bf6600;fill-opacity:1;fill-rule:evenodd;stroke:none;stroke-width:1px;stroke-linecap:butt;stroke-linejoin:miter;stroke-opacity:1;enable-background:new" /><path
         sodipodi:nodetypes="ccscccccc"
         inkscape:connector-curvature="0"
         id="path4168-3"
         d="m 249.29663,45.250063 1.55507,0.05949 c 0,0 -0.72866,6.418983 -0.79896,10.233385 -0.045,2.444317 0.97938,9.989767 0.9647,9.995402 l -0.58012,0.535469 -1.74619,-0.35698 -0.84694,-3.688778 -0.63892,-13.68418 z"
         style="display:inline;fill:#e18200;fill-opacity:1;fill-rule:evenodd;stroke:none;stroke-width:1px;stroke-linecap:butt;stroke-linejoin:miter;stroke-opacity:1;enable-background:new" /><path
         sodipodi:nodetypes="cccccccccccccccccccccccccccccccccc"
         inkscape:connector-curvature="0"
         id="path4185"
         d="m 240.46878,2.8733248 4.09148,-0.2417245 6.60931,-3.86761 6.92405,-3.3841573 3.30467,-1.0877644 5.03566,-0.3625883 4.56357,0.9669021 5.66514,2.9007051 3.61938,4.2301973 1.41629,5.8014132 -0.47211,3.384157 -7.55349,8.339531 -11.48762,11.240238 -10.7008,8.460392 0.31472,6.04314 8.02561,0.362588 0.47209,-6.164002 3.14729,-1.329489 14.63492,-6.768316 8.96978,-5.801412 2.6752,-2.538119 1.73101,-3.50502 3.30466,-7.01004 0.78681,-7.8560796 -1.88837,-4.47192187 -7.23876,-6.12133393 -12.11709,-6.9318446 -7.39613,-1.329491 -6.60932,0 -6.29459,1.692079 -6.45195,4.2301966 -3.93412,4.7136491 -2.2031,4.47192071 z"
         style="display:inline;fill:#9fa0a6;fill-opacity:1;fill-rule:evenodd;stroke:none;stroke-width:1px;stroke-linecap:butt;stroke-linejoin:miter;stroke-opacity:1;enable-background:new" /><path
         sodipodi:nodetypes="cccccccccccccccscc"
         inkscape:connector-curvature="0"
         id="path4187"
         d="m 241.74425,3.3264442 5.36805,-1.6828139 11.72207,-6.058128 7.34,-1.1779693 6.13492,1.5145317 3.50566,2.5242195 3.61521,3.9546122 2.19105,5.8057064 -1.20508,4.1228942 -25.41608,23.391106 -3.28657,3.281485 0,5.721566 2.84836,0.504844 -0.10954,-5.805707 25.74473,-23.138685 c 0,0 3.13085,-2.790791 4.05344,-4.459454 1.6987,-3.0723922 -0.98597,-20.6986052 -20.04804,-19.8571984 0,0 -11.28386,-0.4207029 -22.45817,11.3589906 z"
         style="display:inline;fill:#ffffff;fill-opacity:1;fill-rule:evenodd;stroke:none;stroke-width:1px;stroke-linecap:butt;stroke-linejoin:miter;stroke-opacity:1;enable-background:new" /><path
         sodipodi:nodetypes="cccccccccccccsscccccccccccccccccccccccc"
         inkscape:connector-curvature="0"
         id="path4189"
         d="m 240.83172,3.4742175 10.30145,-13.1233285 4.98958,-2.375883 8.66256,-0.682226 5.58215,1.040182 5.15124,1.421957 10.74922,6.5425662 7.18981,8.6993216 -2.02318,11.3900312 -3.44786,5.575287 -17.57795,10.556047 -12.15518,5.20151 0,7.702268 c 0,0 -0.12378,1.069131 1.99198,1.713987 4.19264,1.277862 2.04348,10.551708 0.2167,15.384202 -0.55306,1.463062 -2.56422,3.40169 -2.56422,3.40169 l 4.3851,0.236993 0.94812,-5.332338 0.47406,-9.835204 -1.42218,-5.450833 -0.59258,-0.473986 -1.65924,0 0.11854,-6.161815 5.80728,-2.251431 17.18481,-9.361218 6.99245,-4.384366 1.5407,-2.606922 3.08142,-8.057756 0.23703,-8.0577567 -2.01478,-3.91038218 -5.21469,-5.33233852 -13.27378,-7.2282816 -11.1405,-1.65895 -9.95535,1.303461 -4.74064,3.1994031 -4.14805,4.2658711 -3.67401,5.92482079 -0.59257,2.60692111 z"
         style="opacity:0.43600003;fill:#000000;fill-opacity:1;fill-rule:evenodd;stroke:none;stroke-width:1px;stroke-linecap:butt;stroke-linejoin:miter;stroke-opacity:1;filter:url(#filter4288);enable-background:new" /><path
         sodipodi:nodetypes="sssss"
         inkscape:connector-curvature="0"
         id="path4156"
         d="m 249.82552,45.228972 c -4.0189,1.208774 -2.10718,21.106314 0,20.472532 1.26089,-0.37924 11.81092,0.624366 12.36716,0 1.41187,-1.584825 2.7066,-20.472532 -0.87445,-20.472532 -3.14724,0 -10.29859,-0.359155 -11.49271,0 z"
         style="fill:none;fill-rule:evenodd;stroke:#000000;stroke-width:1px;stroke-linecap:butt;stroke-linejoin:miter;stroke-opacity:1" /><path
         sodipodi:nodetypes="ccssc"
         inkscape:connector-curvature="0"
         id="path4158"
         d="m 259.87845,45.369194 0,-6.45025 c 0,0 26.81669,-11.849669 30.60871,-16.957032 0.62276,-0.838768 5.90557,-8.825544 4.3268,-17.0663994 -2.37255,-12.3841438 -42.46036,-35.0676206 -54.48714,-1.084519"
         style="fill:none;fill-rule:evenodd;stroke:#000000;stroke-width:1px;stroke-linecap:butt;stroke-linejoin:miter;stroke-opacity:1" /><path
         sodipodi:nodetypes="ccssc"
         inkscape:connector-curvature="0"
         id="path4166"
         d="m 251.63321,44.607286 0,-5.55254 c 0,0 23.3888,-19.655714 28.71543,-27.323813 3.46941,-4.9944664 -3.67025,-20.9647495 -20.45662,-16.5883258 -5.02606,1.3103565 -15.98397,9.159784 -19.67235,7.9573066"
         style="fill:none;fill-rule:evenodd;stroke:#000000;stroke-width:1px;stroke-linecap:butt;stroke-linejoin:miter;stroke-opacity:1" /></g><path
       style="fill:#ffffff;fill-rule:evenodd;stroke:#000000;stroke-width:1px;stroke-linecap:butt;stroke-linejoin:miter;stroke-opacity:1;fill-opacity:1"
       d="m 22.333322,26.794144 c 0,0 125.460728,85.392116 256.833208,0 0,0 -137.94111,53.205857 -256.833208,0 z"
       id="path4160"
       inkscape:connector-curvature="0" /></g></svg>