<?xml version="1.0" encoding="UTF-8" standalone="no"?>
<!-- Generator: Adobe Illustrator 18.0.0, SVG Export Plug-In . SVG Version: 6.00 Build 0)  -->

<svg
   xmlns:dc="http://purl.org/dc/elements/1.1/"
   xmlns:cc="http://creativecommons.org/ns#"
   xmlns:rdf="http://www.w3.org/1999/02/22-rdf-syntax-ns#"
   xmlns:svg="http://www.w3.org/2000/svg"
   xmlns="http://www.w3.org/2000/svg"
   xmlns:sodipodi="http://sodipodi.sourceforge.net/DTD/sodipodi-0.dtd"
   xmlns:inkscape="http://www.inkscape.org/namespaces/inkscape"
   version="1.1"
   id="Capa_1"
   x="0px"
   y="0px"
   viewBox="0 0 404.405 404.405"
   style="enable-background:new 0 0 404.405 404.405;"
   xml:space="preserve"
   inkscape:version="0.91 r13725"
   sodipodi:docname="water-sprayer.svg"
   enable-background="new"
   inkscape:export-filename="/home/dallasarivle/Documents/plantown/aset/obatCair.png"
   inkscape:export-xdpi="90"
   inkscape:export-ydpi="90"><metadata
     id="metadata45"><rdf:RDF><cc:Work
         rdf:about=""><dc:format>image/svg+xml</dc:format><dc:type
           rdf:resource="http://purl.org/dc/dcmitype/StillImage" /></cc:Work></rdf:RDF></metadata><defs
     id="defs43"><filter
       inkscape:collect="always"
       style="color-interpolation-filters:sRGB"
       id="filter4195"><feBlend
         inkscape:collect="always"
         mode="multiply"
         in2="BackgroundImage"
         id="feBlend4197" /></filter></defs><sodipodi:namedview
     pagecolor="#ffffff"
     bordercolor="#666666"
     borderopacity="1"
     objecttolerance="10"
     gridtolerance="10"
     guidetolerance="10"
     inkscape:pageopacity="0"
     inkscape:pageshadow="2"
     inkscape:window-width="1366"
     inkscape:window-height="710"
     id="namedview41"
     showgrid="false"
     inkscape:zoom="0.41264871"
     inkscape:cx="32.944339"
     inkscape:cy="227.39864"
     inkscape:window-x="0"
     inkscape:window-y="27"
     inkscape:window-maximized="1"
     inkscape:current-layer="layer3" /><g
     id="g11" /><g
     id="g13" /><g
     id="g15" /><g
     id="g17" /><g
     id="g19" /><g
     id="g21" /><g
     id="g23" /><g
     id="g25" /><g
     id="g27" /><g
     id="g29" /><g
     id="g31" /><g
     id="g33" /><g
     id="g35" /><g
     id="g37" /><g
     id="g39" /><g
     inkscape:groupmode="layer"
     id="layer2"
     inkscape:label="warna"><path
       style="fill:#ffffff;fill-rule:evenodd;stroke:none;stroke-width:1px;stroke-linecap:butt;stroke-linejoin:miter;stroke-opacity:1;fill-opacity:1"
       d="m 82.251864,22.276546 35.985186,0 0,-17.1358047 101.10125,0 65.97285,43.6963027 -2.57037,31.701239 -27.41728,0 -13.70865,17.135806 3.42716,7.711111 9.42469,11.99506 -7.71111,16.27902 0,25.70371 30.84445,37.69877 29.13087,53.97778 10.28148,56.54816 -2.57037,52.26421 -15.42222,31.70123 -21.41976,10.28149 -131.08891,-2.57037 -33.41482,-34.27161 -3.42716,-74.54075 37.69877,-87.39261 32.55803,-39.41235 -1.71358,-29.98766 -5.14074,-13.70864 6.85432,-14.56544 -1.71358,-11.138272 -10.28148,-1.713581 -17.13581,23.990123 -25.7037,17.9926 -14.56544,-14.56543 21.41976,-13.70865 11.13827,-22.276546 -15.42222,-7.711112 -11.13828,0.85679 0,-18.849385 -34.271606,-1.713581 z"
       id="path4185"
       inkscape:connector-curvature="0" /><path
       style="fill:#22a8ff;fill-rule:evenodd;stroke:none;stroke-width:1px;stroke-linecap:butt;stroke-linejoin:miter;stroke-opacity:1;fill-opacity:1"
       d="m 151.46055,201.75078 126.01518,1.51461 17.56942,27.86874 16.35774,49.07322 5.45258,79.97117 -5.45258,17.56942 -32.71548,25.44537 -134.49697,-4.84673 -33.92716,-30.89796 3.63505,-80.57701 21.81032,-69.67185 z"
       id="path4188"
       inkscape:connector-curvature="0" /><path
       style="fill:none;fill-rule:evenodd;stroke:#ffffff;stroke-width:8.3;stroke-linecap:round;stroke-linejoin:round;stroke-miterlimit:4;stroke-dasharray:none;stroke-opacity:1"
       d="m 279.31362,245.89881 c 0,0 36.84198,62.54569 14.56544,113.09631"
       id="path4190"
       inkscape:connector-curvature="0"
       sodipodi:nodetypes="cc" /></g><g
     inkscape:groupmode="layer"
     id="layer3"
     inkscape:label="bayangan"
     style="filter:url(#filter4195);opacity:0.473"><path
       style="enable-background:new 0 0 404.40499999999997272 404.40499999999997272;fill:#141515;fill-rule:evenodd;stroke:none;stroke-width:1px;stroke-linecap:butt;stroke-linejoin:miter;stroke-opacity:1;fill-opacity:1;opacity:0.725"
       d="m 111.38273,359.85191 c 0,0 86.96421,71.54198 203.48769,0 l -5.99753,18.42099 -28.70248,22.70494 -137.94323,-0.85679 -29.13087,-25.27531 z"
       id="path4192"
       inkscape:connector-curvature="0" /><path
       style="fill:#141515;fill-rule:evenodd;stroke:none;stroke-width:1px;stroke-linecap:butt;stroke-linejoin:miter;stroke-opacity:1;fill-opacity:1"
       d="m 232.49194,130.41286 c 0,0 19.08403,-12.72268 0,-24.23368 0,0 1.96899,-40.137049 48.31592,-29.38335 l -3.02921,-22.11324 -65.72306,-46.9714782 12.42346,0.8567903 57.83334,41.9827219 1.71358,31.70124 -28.70247,0 -8.13951,9.424693 -3.42716,14.137043 8.99629,11.99506 -1.71358,14.13704 z"
       id="path4207"
       inkscape:connector-curvature="0" /></g><g
     inkscape:groupmode="layer"
     id="layer1"
     inkscape:label="garis"><path
       style="opacity:1;fill:#ff0000;fill-opacity:1;fill-rule:nonzero;stroke:none;stroke-width:0.30000001;stroke-linecap:round;stroke-linejoin:round;stroke-miterlimit:4;stroke-dasharray:none;stroke-dashoffset:0;stroke-opacity:1"
       d="m 193.92362,231.33607 0,36.12295 -34.84897,0 0,35.69959 34.84897,0 0,35.27525 35.69959,0 0,-35.27525 36.54923,0 0,-35.69959 -36.54923,0 0,-36.12295 -35.69959,0 z"
       id="rect4152"
       inkscape:connector-curvature="0" /><path
       style="enable-background:new 0 0 404.40499999999997272 404.40499999999997272"
       inkscape:connector-curvature="0"
       id="path5"
       d="m 252.40642,157.15 0,-24.233 c 3.492,-3.495 5.654,-8.319 5.654,-13.638 0,-6.972 -3.729,-13.075 -9.283,-16.468 1.023,-14.308 12.117,-15.888 13.853,-16.044 l 19.445,0 c 2.762,0 5,-2.239 5,-5 l 0,-32.137 c 0,-1.59 -0.758,-3.086 -2.039,-4.028 l -60.695,-44.63000048 c -0.857,-0.632 -1.896,-0.97199999688524 -2.961,-0.97199999688524 l -103.546,0 c -2.762,0 -5,2.23899997688524 -5,4.99999997688524 l 0,12.7470005 -28.862004,0 c -2.761,0 -5,2.239 -5,5 l 0,34.789 c 0,2.761 2.239,5 5,5 l 28.862004,0 0,14.766 c 0,2.761 2.238,5 5,5 l 19.66,0 c -3.021,21.238 -27.008,33.997 -27.262,34.129 -2.349,1.213 -3.347,4.045 -2.278,6.463 5.797,13.119 11.448,15.329 13.62,15.59 0.568,0.068 1.433,0.016 1.78,-0.061 29.979,-6.474 43.104,-29.25 48.241,-42.133 l 5.242,7.386 c -4.826,3.513 -7.981,9.19 -7.981,15.602 0,5.319 2.163,10.143 5.654,13.639 l 0,24.233 c -59.148,70.939 -69.603,118.995 -69.603,193.26 0,23.828 13.575,42.355 39.258,53.576 0.632,0.276 1.313,0.419 2.002,0.419 l 134.58,0 c 0.689,0 1.371,-0.143 2.002,-0.419 25.682,-11.221 39.256,-29.748 39.256,-53.576 0,-74.265 -10.455,-122.321 -69.599,-193.26 z m -139.572,-104.614 -23.862004,0 0,-24.789 23.862004,0 0,24.789 z m 10.187,75.701 c -0.804,-0.703 -2.22,-2.244 -3.97,-5.416 8.377,-5.378 26.326,-19.261 28.546,-40.519 l 14.071,0 2.783,3.921 c -1.593,5.826 -10.896,34.423 -41.43,42.014 z m 45.307,-53.829 c -0.938,-1.321 -2.457,-2.106 -4.077,-2.106 l -41.417,0 0,-62.3020005 96.906,0 57.336,42.1600005 0,24.606 c 0,0 -14.83,0.003 -14.926,0.008 -7.44,0.435 -20.953,5.935 -23.152,23.199 l -52.525,0 -18.145,-25.565 z m 79.732,44.871 c 0,5.132 -4.176,9.307 -9.307,9.307 l -50.592,0 c -5.13,0 -9.305,-4.175 -9.305,-9.307 0,-5.131 4.175,-9.306 9.305,-9.306 l 50.592,0 c 5.131,0 9.307,4.174 9.307,9.306 z m -64.719,42.901 c 0.756,-0.9 1.17,-2.039 1.17,-3.215 l 0,-20.736 c 1.184,0.227 2.401,0.357 3.65,0.357 l 50.592,0 c 1.25,0 2.469,-0.129 3.652,-0.357 l 0,20.736 c 0,1.176 0.414,2.314 1.17,3.215 10.588,12.617 19.582,24.478 27.221,35.881 l -114.678,0 c 7.641,-11.403 16.634,-23.265 27.223,-35.881 z m 96.348,232.225 -132.462,0 c -21.446,-9.655 -32.318,-24.452 -32.318,-43.995 0,-55.246 5.983,-95.492 34.781,-142.35 l 127.536,0 c 28.797,46.857 34.779,87.104 34.779,142.35 0,19.543 -10.871,34.34 -32.316,43.995 z" /></g></svg>