<?xml version="1.0" encoding="UTF-8" standalone="no"?>
<!-- Generator: Adobe Illustrator 18.0.0, SVG Export Plug-In . SVG Version: 6.00 Build 0)  -->

<svg
   xmlns:dc="http://purl.org/dc/elements/1.1/"
   xmlns:cc="http://creativecommons.org/ns#"
   xmlns:rdf="http://www.w3.org/1999/02/22-rdf-syntax-ns#"
   xmlns:svg="http://www.w3.org/2000/svg"
   xmlns="http://www.w3.org/2000/svg"
   xmlns:sodipodi="http://sodipodi.sourceforge.net/DTD/sodipodi-0.dtd"
   xmlns:inkscape="http://www.inkscape.org/namespaces/inkscape"
   version="1.1"
   id="Capa_1"
   x="0px"
   y="0px"
   viewBox="0 0 404.405 404.405"
   style="enable-background:new 0 0 404.405 404.405;"
   xml:space="preserve"
   inkscape:version="0.91 r13725"
   sodipodi:docname="water-sprayer.svg"><metadata
     id="metadata45"><rdf:RDF><cc:Work
         rdf:about=""><dc:format>image/svg+xml</dc:format><dc:type
           rdf:resource="http://purl.org/dc/dcmitype/StillImage" /></cc:Work></rdf:RDF></metadata><defs
     id="defs43" /><sodipodi:namedview
     pagecolor="#ffffff"
     bordercolor="#666666"
     borderopacity="1"
     objecttolerance="10"
     gridtolerance="10"
     guidetolerance="10"
     inkscape:pageopacity="0"
     inkscape:pageshadow="2"
     inkscape:window-width="1366"
     inkscape:window-height="695"
     id="namedview41"
     showgrid="false"
     inkscape:zoom="0.5835734"
     inkscape:cx="202.2025"
     inkscape:cy="202.2025"
     inkscape:window-x="0"
     inkscape:window-y="27"
     inkscape:window-maximized="1"
     inkscape:current-layer="Capa_1" /><path
     inkscape:connector-curvature="0"
     id="path5"
     d="m 252.40642,157.15 0,-24.233 c 3.492,-3.495 5.654,-8.319 5.654,-13.638 0,-6.972 -3.729,-13.075 -9.283,-16.468 1.023,-14.308 12.117,-15.888 13.853,-16.044 l 19.445,0 c 2.762,0 5,-2.239 5,-5 l 0,-32.137 c 0,-1.59 -0.758,-3.086 -2.039,-4.028 l -60.695,-44.63000048 c -0.857,-0.632 -1.896,-0.97199999688524 -2.961,-0.97199999688524 l -103.546,0 c -2.762,0 -5,2.23899997688524 -5,4.99999997688524 l 0,12.7470005 -28.862004,0 c -2.761,0 -5,2.239 -5,5 l 0,34.789 c 0,2.761 2.239,5 5,5 l 28.862004,0 0,14.766 c 0,2.761 2.238,5 5,5 l 19.66,0 c -3.021,21.238 -27.008,33.997 -27.262,34.129 -2.349,1.213 -3.347,4.045 -2.278,6.463 5.797,13.119 11.448,15.329 13.62,15.59 0.568,0.068 1.433,0.016 1.78,-0.061 29.979,-6.474 43.104,-29.25 48.241,-42.133 l 5.242,7.386 c -4.826,3.513 -7.981,9.19 -7.981,15.602 0,5.319 2.163,10.143 5.654,13.639 l 0,24.233 c -59.148,70.939 -69.603,118.995 -69.603,193.26 0,23.828 13.575,42.355 39.258,53.576 0.632,0.276 1.313,0.419 2.002,0.419 l 134.58,0 c 0.689,0 1.371,-0.143 2.002,-0.419 25.682,-11.221 39.256,-29.748 39.256,-53.576 0,-74.265 -10.455,-122.321 -69.599,-193.26 z m -139.572,-104.614 -23.862004,0 0,-24.789 23.862004,0 0,24.789 z m 10.187,75.701 c -0.804,-0.703 -2.22,-2.244 -3.97,-5.416 8.377,-5.378 26.326,-19.261 28.546,-40.519 l 14.071,0 2.783,3.921 c -1.593,5.826 -10.896,34.423 -41.43,42.014 z m 45.307,-53.829 c -0.938,-1.321 -2.457,-2.106 -4.077,-2.106 l -41.417,0 0,-62.3020005 96.906,0 57.336,42.1600005 0,24.606 c 0,0 -14.83,0.003 -14.926,0.008 -7.44,0.435 -20.953,5.935 -23.152,23.199 l -52.525,0 -18.145,-25.565 z m 79.732,44.871 c 0,5.132 -4.176,9.307 -9.307,9.307 l -50.592,0 c -5.13,0 -9.305,-4.175 -9.305,-9.307 0,-5.131 4.175,-9.306 9.305,-9.306 l 50.592,0 c 5.131,0 9.307,4.174 9.307,9.306 z m -64.719,42.901 c 0.756,-0.9 1.17,-2.039 1.17,-3.215 l 0,-20.736 c 1.184,0.227 2.401,0.357 3.65,0.357 l 50.592,0 c 1.25,0 2.469,-0.129 3.652,-0.357 l 0,20.736 c 0,1.176 0.414,2.314 1.17,3.215 10.588,12.617 19.582,24.478 27.221,35.881 l -114.678,0 c 7.641,-11.403 16.634,-23.265 27.223,-35.881 z m 96.348,232.225 -132.462,0 c -21.446,-9.655 -32.318,-24.452 -32.318,-43.995 0,-55.246 5.983,-95.492 34.781,-142.35 l 127.536,0 c 28.797,46.857 34.779,87.104 34.779,142.35 0,19.543 -10.871,34.34 -32.316,43.995 z" /><g
     id="g11" /><g
     id="g13" /><g
     id="g15" /><g
     id="g17" /><g
     id="g19" /><g
     id="g21" /><g
     id="g23" /><g
     id="g25" /><g
     id="g27" /><g
     id="g29" /><g
     id="g31" /><g
     id="g33" /><g
     id="g35" /><g
     id="g37" /><g
     id="g39" /></svg>