<?xml version="1.0" encoding="UTF-8" standalone="no"?>
<!-- Created with Inkscape (http://www.inkscape.org/) -->

<svg
   xmlns:dc="http://purl.org/dc/elements/1.1/"
   xmlns:cc="http://creativecommons.org/ns#"
   xmlns:rdf="http://www.w3.org/1999/02/22-rdf-syntax-ns#"
   xmlns:svg="http://www.w3.org/2000/svg"
   xmlns="http://www.w3.org/2000/svg"
   xmlns:sodipodi="http://sodipodi.sourceforge.net/DTD/sodipodi-0.dtd"
   xmlns:inkscape="http://www.inkscape.org/namespaces/inkscape"
   width="200"
   height="200"
   viewBox="0 0 200 200"
   id="svg2"
   version="1.1"
   inkscape:version="0.91 r13725"
   sodipodi:docname="awan.svg"
   inkscape:export-filename="/home/dallasarivle/Documents/plantown/aset/gif/popup3.png"
   inkscape:export-xdpi="90"
   inkscape:export-ydpi="90">
  <defs
     id="defs4" />
  <sodipodi:namedview
     id="base"
     pagecolor="#ffffff"
     bordercolor="#666666"
     borderopacity="1.0"
     inkscape:pageopacity="0.0"
     inkscape:pageshadow="2"
     inkscape:zoom="0.98994949"
     inkscape:cx="-42.113159"
     inkscape:cy="79.9664"
     inkscape:document-units="px"
     inkscape:current-layer="layer1"
     showgrid="false"
     units="px"
     inkscape:window-width="1366"
     inkscape:window-height="713"
     inkscape:window-x="0"
     inkscape:window-y="27"
     inkscape:window-maximized="1" />
  <metadata
     id="metadata7">
    <rdf:RDF>
      <cc:Work
         rdf:about="">
        <dc:format>image/svg+xml</dc:format>
        <dc:type
           rdf:resource="http://purl.org/dc/dcmitype/StillImage" />
        <dc:title></dc:title>
      </cc:Work>
    </rdf:RDF>
  </metadata>
  <g
     inkscape:label="Layer 1"
     inkscape:groupmode="layer"
     id="layer1"
     transform="translate(0,-852.36216)">
    <path
       style="opacity:1;fill:#ffffff;fill-opacity:1;fill-rule:nonzero;stroke:#000000;stroke-width:1.7;stroke-linecap:round;stroke-linejoin:round;stroke-miterlimit:4;stroke-dasharray:none;stroke-dashoffset:0;stroke-opacity:1"
       d="M 63.638672 7.0605469 A 23.233509 23.233509 0 0 0 45.980469 15.205078 A 23.233509 23.233509 0 0 0 30.304688 9.0820312 A 23.233509 23.233509 0 0 0 7.0703125 32.314453 A 23.233509 23.233509 0 0 0 19.677734 52.951172 A 23.233509 23.233509 0 0 0 10.101562 71.710938 A 23.233509 23.233509 0 0 0 33.335938 94.943359 A 23.233509 23.233509 0 0 0 47.111328 90.386719 A 25.75889 25.75889 0 0 0 54.953125 93.412109 A 23.233509 23.233509 0 0 0 73.740234 103.02539 A 23.233509 23.233509 0 0 0 94.208984 90.767578 A 23.233509 23.233509 0 0 0 114.30664 73.798828 A 23.233509 23.233509 0 0 0 128.28906 52.517578 A 23.233509 23.233509 0 0 0 113.11328 30.757812 A 23.233509 23.233509 0 0 0 113.13672 30.294922 A 23.233509 23.233509 0 0 0 89.904297 7.0605469 A 23.233509 23.233509 0 0 0 76.791016 11.144531 A 23.233509 23.233509 0 0 0 63.638672 7.0605469 z "
       transform="translate(0,852.36216)"
       id="path4155" />
    <circle
       style="opacity:1;fill:#ffffff;fill-opacity:1;fill-rule:nonzero;stroke:#000000;stroke-width:1.70000005;stroke-linecap:round;stroke-linejoin:round;stroke-miterlimit:4;stroke-dasharray:none;stroke-dashoffset:0;stroke-opacity:1"
       id="path4220"
       cx="106.06602"
       cy="968.51953"
       r="10.101525" />
    <circle
       style="opacity:1;fill:#ffffff;fill-opacity:1;fill-rule:nonzero;stroke:#000000;stroke-width:1.70000005;stroke-linecap:round;stroke-linejoin:round;stroke-miterlimit:4;stroke-dasharray:none;stroke-dashoffset:0;stroke-opacity:1"
       id="path4220-2"
       cx="126.26907"
       cy="990.23785"
       r="11.616755" />
    <circle
       style="opacity:1;fill:#ffffff;fill-opacity:1;fill-rule:nonzero;stroke:#000000;stroke-width:1.70000005;stroke-linecap:round;stroke-linejoin:round;stroke-miterlimit:4;stroke-dasharray:none;stroke-dashoffset:0;stroke-opacity:1"
       id="path4220-2-9"
       cx="147.48227"
       cy="1010.4409"
       r="13.131984" />
  </g>
</svg>
