<?xml version="1.0" encoding="UTF-8" standalone="no"?>
<!-- Created with Inkscape (http://www.inkscape.org/) -->

<svg
   xmlns:dc="http://purl.org/dc/elements/1.1/"
   xmlns:cc="http://creativecommons.org/ns#"
   xmlns:rdf="http://www.w3.org/1999/02/22-rdf-syntax-ns#"
   xmlns:svg="http://www.w3.org/2000/svg"
   xmlns="http://www.w3.org/2000/svg"
   xmlns:sodipodi="http://sodipodi.sourceforge.net/DTD/sodipodi-0.dtd"
   xmlns:inkscape="http://www.inkscape.org/namespaces/inkscape"
   id="svg2"
   version="1.1"
   inkscape:version="0.91 r13725"
   width="500"
   height="500"
   viewBox="0 0 500 500"
   sodipodi:docname="obatTabur.svg"
   inkscape:export-filename="/home/dallasarivle/Documents/plantown/aset/pupuk2.png"
   inkscape:export-xdpi="90"
   inkscape:export-ydpi="90">
  <metadata
     id="metadata8">
    <rdf:RDF>
      <cc:Work
         rdf:about="">
        <dc:format>image/svg+xml</dc:format>
        <dc:type
           rdf:resource="http://purl.org/dc/dcmitype/StillImage" />
        <dc:title></dc:title>
      </cc:Work>
    </rdf:RDF>
  </metadata>
  <defs
     id="defs6" />
  <sodipodi:namedview
     pagecolor="#ffffff"
     bordercolor="#666666"
     borderopacity="1"
     objecttolerance="10"
     gridtolerance="10"
     guidetolerance="10"
     inkscape:pageopacity="0"
     inkscape:pageshadow="2"
     inkscape:window-width="1366"
     inkscape:window-height="713"
     id="namedview4"
     showgrid="false"
     inkscape:zoom="0.8671875"
     inkscape:cx="229.05094"
     inkscape:cy="244.81415"
     inkscape:window-x="0"
     inkscape:window-y="27"
     inkscape:window-maximized="1"
     inkscape:current-layer="svg2" />
  <path
     style="fill:#b9b7ad;fill-opacity:1;fill-rule:evenodd;stroke:none;stroke-width:1px;stroke-linecap:butt;stroke-linejoin:miter;stroke-opacity:1"
     d="m 88.105535,10.10064 c 0,0 145.200485,56.124196 332.627625,5.169335 0,0 19.26129,2.953879 0.74082,45.047103 l -41.48585,118.894692 -3.70409,84.92481 -2.22246,96.74045 -1.48164,56.86268 40.00422,53.17032 6.66736,8.12327 -10.37146,3.69237 c 0,0 -156.31276,38.40079 -334.850083,6.6463 l -7.408188,-8.12327 c 0,0 44.449131,-23.63122 55.561411,-112.24846 l 0.74081,-156.557 -4.44491,-8.8617 0,-36.92389 -30.373565,-36.18534 5.926551,-38.40074 -7.408187,-8.123275 -1.481643,-25.846673 -5.926545,-5.169335 c 0,0 -16.298015,-36.185342 8.889824,-42.831647 z"
     id="path4138-7"
     inkscape:connector-curvature="0" />
  <path
     style="fill:#ffffff;fill-opacity:1;fill-rule:evenodd;stroke:none;stroke-width:1px;stroke-linecap:butt;stroke-linejoin:miter;stroke-opacity:1"
     d="m 86.894905,21.872655 c 0,0 136.397445,53.621602 312.461485,4.938823 0,0 18.09354,2.822203 0.69591,43.038374 l -38.9707,113.593188 -3.47952,81.13799 -2.08772,92.42673 -1.39181,54.32712 37.57889,50.79947 6.26314,7.76102 -9.74267,3.52772 c 0,0 -146.83602,36.68845 -314.549211,6.34993 l -6.959053,-7.76103 c 0,0 41.754334,-22.57749 52.192904,-107.2432 l 0.6959,-149.57612 -4.17543,-8.46655 0,-35.27741 -28.532115,-34.57182 5.567251,-36.68845 -6.959061,-7.761029 -1.391816,-24.69418 -5.567239,-4.938824 c 0,0 -15.309921,-34.571827 8.350865,-40.921752 z"
     id="path4138-7-5"
     inkscape:connector-curvature="0" />
  <path
     style="fill:none;fill-opacity:1;fill-rule:evenodd;stroke:#000000;stroke-width:4.5;stroke-linecap:butt;stroke-linejoin:miter;stroke-opacity:1;stroke-miterlimit:4;stroke-dasharray:none"
     d="m 89.045616,7.8188544 c 0,0 145.200484,56.1241956 332.627624,5.1693346 0,0 19.26129,2.953879 0.74082,45.047041 l -41.48585,118.89476 -3.70409,84.92481 -2.22246,96.74045 -1.48164,56.86268 40.00422,53.17031 6.66736,8.12322 -10.37146,3.69242 c 0,0 -156.31275,38.40074 -334.850082,6.64625 l -7.408187,-8.12322 c 0,0 44.449129,-23.63128 55.561409,-112.24845 l 0.74081,-156.55701 -4.4449,-8.86176 0,-36.92383 L 89.045616,128.19052 94.972167,89.789723 87.56398,81.666509 86.082337,55.819836 80.155793,50.650502 c 0,0 -16.298016,-36.185343 8.889823,-42.8316476 z"
     id="path4138"
     inkscape:connector-curvature="0" />
  <rect
     style="opacity:1;fill:#ff0000;fill-opacity:1;fill-rule:nonzero;stroke:none;stroke-width:14.89999962;stroke-linecap:round;stroke-linejoin:round;stroke-miterlimit:4;stroke-dasharray:none;stroke-dashoffset:0;stroke-opacity:1"
     id="rect4159"
     width="182.24142"
     height="47.262501"
     x="159.73024"
     y="239.70053" />
  <rect
     style="opacity:1;fill:#ff0000;fill-opacity:1;fill-rule:nonzero;stroke:none;stroke-width:14.89999962;stroke-linecap:round;stroke-linejoin:round;stroke-miterlimit:4;stroke-dasharray:none;stroke-dashoffset:0;stroke-opacity:1"
     id="rect4159-3"
     width="181.66524"
     height="47.412403"
     x="174.94524"
     y="-275.29797"
     transform="matrix(0,1,-1,0,0,0)" />
  <text
     xml:space="preserve"
     style="font-style:normal;font-weight:normal;font-size:120.44197083px;line-height:125%;font-family:sans-serif;letter-spacing:0px;word-spacing:0px;fill:#000000;fill-opacity:1;stroke:none;stroke-width:1px;stroke-linecap:butt;stroke-linejoin:miter;stroke-opacity:1"
     x="175.45294"
     y="129.67348"
     id="text4221"
     sodipodi:linespacing="125%"
     transform="scale(1.0015846,0.99841792)"><tspan
       sodipodi:role="line"
       id="tspan4223"
       x="175.45294"
       y="129.67348"
       style="font-style:italic;font-variant:normal;font-weight:600;font-stretch:normal;font-size:52.69335556px;font-family:Oswald;-inkscape-font-specification:'Oswald Semi-Bold Italic';fill:#ff0000;fill-opacity:1">ini obat</tspan></text>
  <text
     xml:space="preserve"
     style="font-style:normal;font-weight:normal;font-size:120.44197083px;line-height:125%;font-family:sans-serif;letter-spacing:0px;word-spacing:0px;fill:#000000;fill-opacity:1;stroke:none;stroke-width:1px;stroke-linecap:butt;stroke-linejoin:miter;stroke-opacity:1"
     x="143.50682"
     y="426.83328"
     id="text4221-7"
     sodipodi:linespacing="125%"
     inkscape:transform-center-x="10.371463"
     inkscape:transform-center-y="-66.462908"
     transform="scale(1.0015846,0.99841792)"><tspan
       sodipodi:role="line"
       id="tspan4223-3"
       x="143.50682"
       y="426.83328"
       style="font-style:italic;font-variant:normal;font-weight:600;font-stretch:normal;font-size:52.69335556px;font-family:Oswald;-inkscape-font-specification:'Oswald Semi-Bold Italic';fill:#ff0000;fill-opacity:1">obat tabur</tspan></text>
</svg>
