<?xml version="1.0" encoding="UTF-8" standalone="no"?>
<!-- Created with Inkscape (http://www.inkscape.org/) -->

<svg
   xmlns:dc="http://purl.org/dc/elements/1.1/"
   xmlns:cc="http://creativecommons.org/ns#"
   xmlns:rdf="http://www.w3.org/1999/02/22-rdf-syntax-ns#"
   xmlns:svg="http://www.w3.org/2000/svg"
   xmlns="http://www.w3.org/2000/svg"
   xmlns:sodipodi="http://sodipodi.sourceforge.net/DTD/sodipodi-0.dtd"
   xmlns:inkscape="http://www.inkscape.org/namespaces/inkscape"
   id="svg2"
   version="1.1"
   inkscape:version="0.91 r13725"
   xml:space="preserve"
   width="1000"
   height="1000"
   viewBox="0 0 1000 1000"
   sodipodi:docname="smile.SVG.svg"><metadata
     id="metadata8"><rdf:RDF><cc:Work
         rdf:about=""><dc:format>image/svg+xml</dc:format><dc:type
           rdf:resource="http://purl.org/dc/dcmitype/StillImage" /><dc:title /></cc:Work></rdf:RDF></metadata><defs
     id="defs6"><clipPath
       clipPathUnits="userSpaceOnUse"
       id="clipPath16"><path
         d="M 0,0 800,0 800,800 0,800 0,0 Z"
         id="path18"
         inkscape:connector-curvature="0" /></clipPath><radialGradient
       fx="0"
       fy="0"
       cx="0"
       cy="0"
       r="1"
       gradientUnits="userSpaceOnUse"
       gradientTransform="matrix(400,0,0,-400,400,400)"
       spreadMethod="pad"
       id="radialGradient24"><stop
         style="stop-opacity:1;stop-color:#ffffff"
         offset="0"
         id="stop26" /><stop
         style="stop-opacity:1;stop-color:#fffeed"
         offset="1"
         id="stop28" /></radialGradient><clipPath
       clipPathUnits="userSpaceOnUse"
       id="clipPath36"><path
         d="M 0,800 800,800 800,0 0,0 0,800 Z"
         id="path38"
         inkscape:connector-curvature="0" /></clipPath><clipPath
       clipPathUnits="userSpaceOnUse"
       id="clipPath92"><path
         d="m 595.786,502.012 20.031,0 0,-20.031 -20.031,0 0,20.031 z"
         id="path94"
         inkscape:connector-curvature="0" /></clipPath><clipPath
       clipPathUnits="userSpaceOnUse"
       id="clipPath108"><path
         d="m 692.171,502.012 20.031,0 0,-20.031 -20.031,0 0,20.031 z"
         id="path110"
         inkscape:connector-curvature="0" /></clipPath><clipPath
       clipPathUnits="userSpaceOnUse"
       id="clipPath140"><path
         d="m 178.459,662.287 -70.586,-0.203 c -1.491,-0.004 -2.52,-1.515 -1.955,-2.895 l 0,0 c 2.939,-7.173 12.754,-25.233 37.1,-25.233 l 0,0 c 24.334,0 34.371,18.185 37.402,25.421 l 0,0 c 0.58,1.386 -0.454,2.91 -1.954,2.91 l 0,0 c -0.002,0 -0.005,0 -0.007,0"
         id="path142"
         inkscape:connector-curvature="0" /></clipPath><clipPath
       clipPathUnits="userSpaceOnUse"
       id="clipPath152"><path
         d="M 0,800 800,800 800,0 0,0 0,800 Z"
         id="path154"
         inkscape:connector-curvature="0" /></clipPath><clipPath
       clipPathUnits="userSpaceOnUse"
       id="clipPath184"><path
         d="m 178.459,309.805 -70.586,-0.204 c -1.491,-0.004 -2.52,-1.515 -1.955,-2.895 l 0,0 c 2.939,-7.173 12.754,-25.233 37.1,-25.233 l 0,0 c 24.334,0 34.371,18.185 37.402,25.422 l 0,0 c 0.58,1.384 -0.454,2.91 -1.954,2.91 l 0,0 c -0.002,0 -0.005,0 -0.007,0"
         id="path186"
         inkscape:connector-curvature="0" /></clipPath><clipPath
       clipPathUnits="userSpaceOnUse"
       id="clipPath196"><path
         d="M 0,800 800,800 800,0 0,0 0,800 Z"
         id="path198"
         inkscape:connector-curvature="0" /></clipPath><clipPath
       clipPathUnits="userSpaceOnUse"
       id="clipPath268"><path
         d="m 84.9642,142.012 20.0308,0 0,-20.031 -20.0308,0 0,20.031 z"
         id="path270"
         inkscape:connector-curvature="0" /></clipPath><clipPath
       clipPathUnits="userSpaceOnUse"
       id="clipPath284"><path
         d="m 181.349,142.012 20.031,0 0,-20.031 -20.031,0 0,20.031 z"
         id="path286"
         inkscape:connector-curvature="0" /></clipPath><clipPath
       clipPathUnits="userSpaceOnUse"
       id="clipPath332"><path
         d="m 680.894,669.287 -51.718,-0.204 c -1.094,-0.004 -1.847,-1.514 -1.433,-2.895 l 0,0 c 2.153,-7.173 9.344,-25.233 27.182,-25.233 l 0,0 c 17.831,0 25.185,18.185 27.406,25.421 l 0,0 c 0.425,1.386 -0.333,2.911 -1.432,2.911 l 0,0 c -0.002,0 -0.003,0 -0.005,0"
         id="path334"
         inkscape:connector-curvature="0" /></clipPath><clipPath
       clipPathUnits="userSpaceOnUse"
       id="clipPath344"><path
         d="M 0,800 800,800 800,0 0,0 0,800 Z"
         id="path346"
         inkscape:connector-curvature="0" /></clipPath><clipPath
       clipPathUnits="userSpaceOnUse"
       id="clipPath360"><path
         d="m 595.786,679.012 20.031,0 0,-20.031 -20.031,0 0,20.031 z"
         id="path362"
         inkscape:connector-curvature="0" /></clipPath><clipPath
       clipPathUnits="userSpaceOnUse"
       id="clipPath376"><path
         d="m 692.171,679.012 20.031,0 0,-20.031 -20.031,0 0,20.031 z"
         id="path378"
         inkscape:connector-curvature="0" /></clipPath><clipPath
       clipPathUnits="userSpaceOnUse"
       id="clipPath412"><path
         d="m 178.459,488.287 -70.586,-0.204 c -1.491,-0.004 -2.52,-1.514 -1.955,-2.895 l 0,0 c 2.939,-7.173 12.754,-25.233 37.1,-25.233 l 0,0 c 24.334,0 34.371,18.185 37.402,25.421 l 0,0 c 0.58,1.386 -0.454,2.911 -1.954,2.911 l 0,0 c -0.002,0 -0.005,0 -0.007,0"
         id="path414"
         inkscape:connector-curvature="0" /></clipPath><clipPath
       clipPathUnits="userSpaceOnUse"
       id="clipPath424"><path
         d="M 0,800 800,800 800,0 0,0 0,800 Z"
         id="path426"
         inkscape:connector-curvature="0" /></clipPath><clipPath
       clipPathUnits="userSpaceOnUse"
       id="clipPath452"><path
         d="m 425.512,502.012 20.031,0 0,-20.031 -20.031,0 0,20.031 z"
         id="path454"
         inkscape:connector-curvature="0" /></clipPath><clipPath
       clipPathUnits="userSpaceOnUse"
       id="clipPath468"><path
         d="m 521.897,502.012 20.031,0 0,-20.031 -20.031,0 0,20.031 z"
         id="path470"
         inkscape:connector-curvature="0" /></clipPath><clipPath
       clipPathUnits="userSpaceOnUse"
       id="clipPath560"><path
         d="M 0,800 800,800 800,0 0,0 0,800 Z"
         id="path562"
         inkscape:connector-curvature="0" /></clipPath></defs><sodipodi:namedview
     pagecolor="#ffffff"
     bordercolor="#666666"
     borderopacity="1"
     objecttolerance="10"
     gridtolerance="10"
     guidetolerance="10"
     inkscape:pageopacity="0"
     inkscape:pageshadow="2"
     inkscape:window-width="1366"
     inkscape:window-height="713"
     id="namedview4"
     showgrid="false"
     inkscape:zoom="0.472"
     inkscape:cx="325.20741"
     inkscape:cy="461.37836"
     inkscape:window-x="0"
     inkscape:window-y="27"
     inkscape:window-maximized="1"
     inkscape:current-layer="g10" /><g
     id="g10"
     inkscape:groupmode="layer"
     inkscape:label="74221-OE7M2S-365"
     transform="matrix(1.25,0,0,-1.25,0,1000)"><g
       id="g40"
       transform="translate(552.5507,679.3362)"><path
         d="m 0,0 c 0,-38.014 -30.817,-68.831 -68.832,-68.831 -38.013,0 -68.829,30.817 -68.829,68.831 0,38.015 30.816,68.831 68.829,68.831 C -30.817,68.831 0,38.015 0,0"
         style="fill:#ffd21f;fill-opacity:1;fill-rule:nonzero;stroke:none"
         id="path42"
         inkscape:connector-curvature="0" /></g><g
       id="g44"
       transform="translate(505.1365,684.5833)"><path
         d="m 0,0 c 0,0 -0.125,10.667 9.375,10.667 9.5,0 9.292,-10.584 9.292,-10.584"
         style="fill:none;stroke:#403408;stroke-width:7;stroke-linecap:round;stroke-linejoin:miter;stroke-miterlimit:10;stroke-dasharray:none;stroke-opacity:1"
         id="path46"
         inkscape:connector-curvature="0" /></g><g
       id="g48"
       transform="translate(443.6365,684.5833)"><path
         d="m 0,0 c 0,0 -0.125,10.667 9.375,10.667 9.5,0 9.292,-10.584 9.292,-10.584"
         style="fill:none;stroke:#403408;stroke-width:7;stroke-linecap:round;stroke-linejoin:miter;stroke-miterlimit:10;stroke-dasharray:none;stroke-opacity:1"
         id="path50"
         inkscape:connector-curvature="0" /></g><g
       id="g52"
       transform="translate(508.3862,661.2501)"><path
         d="m 0,0 c 0,0 -5.214,-18.25 -24.776,-18.25 -19.563,0 -24.557,18.107 -24.557,18.107"
         style="fill:none;stroke:#403408;stroke-width:7;stroke-linecap:round;stroke-linejoin:miter;stroke-miterlimit:10;stroke-dasharray:none;stroke-opacity:1"
         id="path54"
         inkscape:connector-curvature="0" /></g><g
       id="g56"
       transform="translate(382.2763,679.3362)"><path
         d="m 0,0 c 0,-38.014 -30.816,-68.831 -68.831,-68.831 -38.013,0 -68.83,30.817 -68.83,68.831 0,38.015 30.817,68.831 68.83,68.831 C -30.816,68.831 0,38.015 0,0"
         style="fill:#ffd21f;fill-opacity:1;fill-rule:nonzero;stroke:none"
         id="path58"
         inkscape:connector-curvature="0" /></g><g
       id="g60"
       transform="translate(282.1122,678.3362)"><path
         d="m 0,0 0,0 c -2.75,0 -5,2.25 -5,5 l 0,12 c 0,2.75 2.25,5 5,5 2.75,0 5,-2.25 5,-5 L 5,5 C 5,2.25 2.75,0 0,0"
         style="fill:#403408;fill-opacity:1;fill-rule:nonzero;stroke:none"
         id="path62"
         inkscape:connector-curvature="0" /></g><g
       id="g64"
       transform="translate(344.7789,678.3362)"><path
         d="m 0,0 0,0 c -2.75,0 -5,2.25 -5,5 l 0,12 c 0,2.75 2.25,5 5,5 2.75,0 5,-2.25 5,-5 L 5,5 C 5,2.25 2.75,0 0,0"
         style="fill:#403408;fill-opacity:1;fill-rule:nonzero;stroke:none"
         id="path66"
         inkscape:connector-curvature="0" /></g><g
       id="g68"
       transform="translate(338.3862,661.2501)"><path
         d="m 0,0 c 0,0 -5.214,-18.25 -24.776,-18.25 -19.563,0 -24.557,18.107 -24.557,18.107"
         style="fill:none;stroke:#403408;stroke-width:7;stroke-linecap:round;stroke-linejoin:miter;stroke-miterlimit:10;stroke-dasharray:none;stroke-opacity:1"
         id="path70"
         inkscape:connector-curvature="0" /></g><g
       id="g72"
       transform="translate(719.9916,499.7787)"><path
         d="m 0,0 c 0,-38.014 -30.818,-68.831 -68.832,-68.831 -38.013,0 -68.829,30.817 -68.829,68.831 0,38.015 30.816,68.831 68.829,68.831 C -30.818,68.831 0,38.015 0,0"
         style="fill:#ffd21f;fill-opacity:1;fill-rule:nonzero;stroke:none"
         id="path74"
         inkscape:connector-curvature="0" /></g><g
       id="g76"
       transform="translate(619.8275,499.4045)"><path
         d="m 0,0 0,0 c -2.75,0 -5,2.25 -5,5 l 0,12 c 0,2.75 2.25,5 5,5 2.75,0 5,-2.25 5,-5 L 5,5 C 5,2.25 2.75,0 0,0"
         style="fill:#403408;fill-opacity:1;fill-rule:nonzero;stroke:none"
         id="path78"
         inkscape:connector-curvature="0" /></g><g
       id="g80"
       transform="translate(682.4942,499.4045)"><path
         d="m 0,0 0,0 c -2.75,0 -5,2.25 -5,5 l 0,12 c 0,2.75 2.25,5 5,5 l 0,0 c 2.75,0 5,-2.25 5,-5 L 5,5 C 5,2.25 2.75,0 0,0"
         style="fill:#403408;fill-opacity:1;fill-rule:nonzero;stroke:none"
         id="path82"
         inkscape:connector-curvature="0" /></g><path
       inkscape:connector-curvature="0"
       id="path86"
       style="fill:none;stroke:#403408;stroke-width:7;stroke-linecap:round;stroke-linejoin:miter;stroke-miterlimit:10;stroke-dasharray:none;stroke-opacity:1"
       d="m 675.8271,487.9168 c 0,0 -5.214,-10.917 -24.776,-10.917 -19.563,0 -24.557,10.832 -24.557,10.832" /><g
       id="g88"><g
         id="g90" /><g
         id="g96"><g
           clip-path="url(#clipPath92)"
           id="g98"
           style="opacity:0.60000598"><g
             transform="translate(615.8171,491.9968)"
             id="g100"><path
               d="m 0,0 c 0,-5.532 -4.485,-10.016 -10.016,-10.016 -5.532,0 -10.015,4.484 -10.015,10.016 0,5.532 4.483,10.016 10.015,10.016 C -4.485,10.016 0,5.532 0,0"
               style="fill:#ff758a;fill-opacity:1;fill-rule:nonzero;stroke:none"
               id="path102"
               inkscape:connector-curvature="0" /></g></g></g></g><g
       id="g104"><g
         id="g106" /><g
         id="g112"><g
           clip-path="url(#clipPath108)"
           id="g114"
           style="opacity:0.60000598"><g
             transform="translate(712.2023,491.9968)"
             id="g116"><path
               d="m 0,0 c 0,-5.532 -4.485,-10.016 -10.016,-10.016 -5.532,0 -10.015,4.484 -10.015,10.016 0,5.532 4.483,10.016 10.015,10.016 C -4.485,10.016 0,5.532 0,0"
               style="fill:#ff758a;fill-opacity:1;fill-rule:nonzero;stroke:none"
               id="path118"
               inkscape:connector-curvature="0" /></g></g></g></g><g
       id="g120"
       transform="translate(212.0031,679.3362)"><path
         d="m 0,0 c 0,-38.014 -30.817,-68.831 -68.831,-68.831 -38.014,0 -68.83,30.817 -68.83,68.831 0,38.015 30.816,68.831 68.83,68.831 C -30.817,68.831 0,38.015 0,0"
         style="fill:#ffd21f;fill-opacity:1;fill-rule:nonzero;stroke:none"
         id="path122"
         inkscape:connector-curvature="0" /></g><g
       id="g124"
       transform="translate(111.839,678.3362)"><path
         d="m 0,0 0,0 c -2.75,0 -5,2.25 -5,5 l 0,12 c 0,2.75 2.25,5 5,5 l 0,0 c 2.75,0 5,-2.25 5,-5 L 5,5 C 5,2.25 2.75,0 0,0"
         style="fill:#403408;fill-opacity:1;fill-rule:nonzero;stroke:none"
         id="path126"
         inkscape:connector-curvature="0" /></g><g
       id="g128"
       transform="translate(174.5057,678.3362)"><path
         d="m 0,0 0,0 c -2.75,0 -5,2.25 -5,5 l 0,12 c 0,2.75 2.25,5 5,5 l 0,0 c 2.75,0 5,-2.25 5,-5 L 5,5 C 5,2.25 2.75,0 0,0"
         style="fill:#403408;fill-opacity:1;fill-rule:nonzero;stroke:none"
         id="path130"
         inkscape:connector-curvature="0" /></g><g
       id="g132"
       transform="translate(107.8732,662.0837)"><path
         d="m 0,0 c -1.492,-0.004 -2.521,-1.515 -1.955,-2.895 2.938,-7.173 12.754,-25.233 37.1,-25.233 24.334,0 34.371,18.185 37.402,25.421 0.581,1.388 -0.457,2.915 -1.961,2.911 L 0,0 Z"
         style="fill:#403408;fill-opacity:1;fill-rule:nonzero;stroke:none"
         id="path134"
         inkscape:connector-curvature="0" /></g><g
       id="g136"><g
         id="g138"
         clip-path="url(#clipPath140)"><g
           id="g144"
           transform="translate(169.1333,636.2504)"><path
             d="M 0,0 C 0,-7.939 -11.864,-14.375 -26.5,-14.375 -41.136,-14.375 -53,-7.939 -53,0 -53,7.939 -41.136,14.375 -26.5,14.375 -11.864,14.375 0,7.939 0,0"
             style="fill:#ff5a58;fill-opacity:1;fill-rule:nonzero;stroke:none"
             id="path146"
             inkscape:connector-curvature="0" /></g></g></g><g
       id="g148"><g
         id="g150"
         clip-path="url(#clipPath152)"><g
           id="g156"
           transform="translate(212.0031,320.2213)"><path
             d="m 0,0 c 0,-38.014 -30.817,-68.831 -68.831,-68.831 -38.013,0 -68.83,30.817 -68.83,68.831 0,38.015 30.817,68.831 68.83,68.831 C -30.817,68.831 0,38.015 0,0"
             style="fill:#ffd21f;fill-opacity:1;fill-rule:nonzero;stroke:none"
             id="path158"
             inkscape:connector-curvature="0" /></g><g
           id="g160"
           transform="translate(105.477,343.9133)"><path
             d="M 0,0 16.523,-9.375 0.129,-18.667"
             style="fill:none;stroke:#403408;stroke-width:8.71199989;stroke-linecap:round;stroke-linejoin:round;stroke-miterlimit:10;stroke-dasharray:none;stroke-opacity:1"
             id="path162"
             inkscape:connector-curvature="0" /></g><g
           id="g164"
           transform="translate(178.8935,325.2464)"><path
             d="m 0,0 -16.144,9.375 16.018,9.292"
             style="fill:none;stroke:#403408;stroke-width:8.61200047;stroke-linecap:round;stroke-linejoin:round;stroke-miterlimit:10;stroke-dasharray:none;stroke-opacity:1"
             id="path166"
             inkscape:connector-curvature="0" /></g><g
           id="g168"
           transform="translate(214.9326,323.7924)"><path
             d="M 0,0 C 4.758,-3.784 5.546,-10.712 1.761,-15.471 -2.024,-20.23 -8.95,-21.02 -13.708,-17.236 -18.468,-13.449 -27.864,8.091 -27.864,8.091 -27.864,8.091 -4.761,3.786 0,0"
             style="fill:#2fa7bf;fill-opacity:1;fill-rule:nonzero;stroke:none"
             id="path170"
             inkscape:connector-curvature="0" /></g><g
           id="g172"
           transform="translate(70.2237,323.7924)"><path
             d="M 0,0 C -4.758,-3.784 -5.546,-10.712 -1.761,-15.471 2.024,-20.23 8.95,-21.02 13.708,-17.236 18.468,-13.449 27.864,8.091 27.864,8.091 27.864,8.091 4.761,3.786 0,0"
             style="fill:#2fa7bf;fill-opacity:1;fill-rule:nonzero;stroke:none"
             id="path174"
             inkscape:connector-curvature="0" /></g><g
           id="g176"
           transform="translate(107.8732,309.6012)"><path
             d="m 0,0 c -1.492,-0.004 -2.521,-1.515 -1.955,-2.895 2.938,-7.173 12.754,-25.233 37.1,-25.233 24.334,0 34.371,18.185 37.402,25.421 0.581,1.388 -0.457,2.915 -1.961,2.911 L 0,0 Z"
             style="fill:#403408;fill-opacity:1;fill-rule:nonzero;stroke:none"
             id="path178"
             inkscape:connector-curvature="0" /></g></g></g><g
       id="g180"><g
         id="g182"
         clip-path="url(#clipPath184)"><g
           id="g188"
           transform="translate(169.1333,283.7679)"><path
             d="M 0,0 C 0,-7.939 -11.864,-14.375 -26.5,-14.375 -41.136,-14.375 -53,-7.939 -53,0 -53,7.939 -41.136,14.375 -26.5,14.375 -11.864,14.375 0,7.939 0,0"
             style="fill:#ff5a58;fill-opacity:1;fill-rule:nonzero;stroke:none"
             id="path190"
             inkscape:connector-curvature="0" /></g></g></g><g
       id="g200"
       transform="translate(722.825,320.2213)"><path
         d="m 0,0 c 0,-38.014 -30.817,-68.831 -68.832,-68.831 -38.013,0 -68.829,30.817 -68.829,68.831 0,38.015 30.816,68.831 68.829,68.831 C -30.817,68.831 0,38.015 0,0"
         style="fill:#ffd21f;fill-opacity:1;fill-rule:nonzero;stroke:none"
         id="path202"
         inkscape:connector-curvature="0" /></g><g
       id="g204"
       transform="translate(622.6609,317.4135)"><path
         d="m 0,0 0,0 c -2.75,0 -5,2.25 -5,5 l 0,12 c 0,2.75 2.25,5 5,5 2.75,0 5,-2.25 5,-5 L 5,5 C 5,2.25 2.75,0 0,0"
         style="fill:#403408;fill-opacity:1;fill-rule:nonzero;stroke:none"
         id="path206"
         inkscape:connector-curvature="0" /></g><g
       id="g208"
       transform="translate(685.3276,317.4135)"><path
         d="m 0,0 0,0 c -2.75,0 -5,2.25 -5,5 l 0,12 c 0,2.75 2.25,5 5,5 2.75,0 5,-2.25 5,-5 L 5,5 C 5,2.25 2.75,0 0,0"
         style="fill:#403408;fill-opacity:1;fill-rule:nonzero;stroke:none"
         id="path210"
         inkscape:connector-curvature="0" /></g><g
       id="g212"
       transform="translate(614.9526,351.8978)"><path
         d="M 0,0 C 0,0 9.865,-4.059 13.377,4.768"
         style="fill:none;stroke:#403408;stroke-width:4;stroke-linecap:round;stroke-linejoin:miter;stroke-miterlimit:10;stroke-dasharray:none;stroke-opacity:1"
         id="path214"
         inkscape:connector-curvature="0" /></g><g
       id="g216"
       transform="translate(692.0793,351.8978)"><path
         d="M 0,0 C 0,0 -9.865,-4.059 -13.377,4.768"
         style="fill:none;stroke:#403408;stroke-width:4;stroke-linecap:round;stroke-linejoin:miter;stroke-miterlimit:10;stroke-dasharray:none;stroke-opacity:1"
         id="path218"
         inkscape:connector-curvature="0" /></g><g
       id="g220"
       transform="translate(678.5834,283.199)"><path
         d="M 0,0 C 1.13,-1.172 3.162,-0.086 2.719,1.481 2.715,1.494 2.711,1.508 2.707,1.522 0.554,8.695 -6.638,26.755 -24.476,26.755 -42.306,26.755 -49.66,8.57 -51.881,1.333 -51.885,1.32 -51.889,1.306 -51.893,1.292 c -0.455,-1.572 1.593,-2.666 2.721,-1.48 3.6,3.783 14.267,9.864 24.587,9.864 C -14.267,9.676 -3.602,3.735 0,0"
         style="fill:#403408;fill-opacity:1;fill-rule:nonzero;stroke:none"
         id="path222"
         inkscape:connector-curvature="0" /></g><g
       id="g224"
       transform="translate(382.2763,140.6637)"><path
         d="m 0,0 c 0,-38.014 -30.818,-68.831 -68.832,-68.831 -38.013,0 -68.829,30.817 -68.829,68.831 0,38.015 30.816,68.831 68.829,68.831 C -30.818,68.831 0,38.015 0,0"
         style="fill:#ffd21f;fill-opacity:1;fill-rule:nonzero;stroke:none"
         id="path226"
         inkscape:connector-curvature="0" /></g><g
       id="g228"
       transform="translate(295.7789,153.6667)"><path
         d="m 0,0 0,0 c 0,-2.75 -2.25,-5 -5,-5 l -17.333,0 c -2.75,0 -5,2.25 -5,5 l 0,0 c 0,2.75 2.25,5 5,5 L -5,5 C -2.25,5 0,2.75 0,0"
         style="fill:#403408;fill-opacity:1;fill-rule:nonzero;stroke:none"
         id="path230"
         inkscape:connector-curvature="0" /></g><g
       id="g232"
       transform="translate(358.4456,153.6667)"><path
         d="m 0,0 0,0 c 0,-2.75 -2.25,-5 -5,-5 l -17.333,0 c -2.75,0 -5,2.25 -5,5 l 0,0 c 0,2.75 2.25,5 5,5 L -5,5 C -2.25,5 0,2.75 0,0"
         style="fill:#403408;fill-opacity:1;fill-rule:nonzero;stroke:none"
         id="path234"
         inkscape:connector-curvature="0" /></g><g
       id="g236"
       transform="translate(274.0307,121)"><path
         d="M 0,0 78.83,0"
         style="fill:none;stroke:#403408;stroke-width:6;stroke-linecap:round;stroke-linejoin:miter;stroke-miterlimit:10;stroke-dasharray:none;stroke-opacity:1"
         id="path238"
         inkscape:connector-curvature="0" /></g><g
       id="g240"
       transform="translate(212.0031,140.6637)"><path
         d="m 0,0 c 0,-38.014 -30.818,-68.831 -68.832,-68.831 -38.013,0 -68.829,30.817 -68.829,68.831 0,38.015 30.816,68.831 68.829,68.831 C -30.818,68.831 0,38.015 0,0"
         style="fill:#ffd21f;fill-opacity:1;fill-rule:nonzero;stroke:none"
         id="path242"
         inkscape:connector-curvature="0" /></g><g
       id="g244"
       transform="translate(114.839,137.4225)"><path
         d="m 0,0 0,0 c -2.75,0 -5,2.25 -5,5 l 0,12 c 0,2.75 2.25,5 5,5 l 0,0 c 2.75,0 5,-2.25 5,-5 L 5,5 C 5,2.25 2.75,0 0,0"
         style="fill:#403408;fill-opacity:1;fill-rule:nonzero;stroke:none"
         id="path246"
         inkscape:connector-curvature="0" /></g><g
       id="g248"
       transform="translate(177.5057,137.4225)"><path
         d="m 0,0 0,0 c -2.75,0 -5,2.25 -5,5 l 0,12 c 0,2.75 2.25,5 5,5 l 0,0 c 2.75,0 5,-2.25 5,-5 L 5,5 C 5,2.25 2.75,0 0,0"
         style="fill:#403408;fill-opacity:1;fill-rule:nonzero;stroke:none"
         id="path250"
         inkscape:connector-curvature="0" /></g><g
       id="g252"
       transform="translate(182.5057,156.9613)"><path
         d="m 0,0 0,-2.08 c 0,-0.803 -0.656,-1.459 -1.458,-1.459 l -17.003,0 C -20.408,-3.539 -22,-1.946 -22,0 c 0,1.946 1.592,3.539 3.539,3.539 l 14.922,0 C -1.592,3.539 0,1.946 0,0"
         style="fill:#403408;fill-opacity:1;fill-rule:nonzero;stroke:none"
         id="path254"
         inkscape:connector-curvature="0" /></g><g
       id="g256"
       transform="translate(119.839,156.9613)"><path
         d="m 0,0 0,-1.83 c 0,-0.94 -0.769,-1.709 -1.708,-1.709 l -16.753,0 C -20.408,-3.539 -22,-1.946 -22,0 c 0,1.946 1.592,3.539 3.539,3.539 l 14.922,0 C -1.592,3.539 0,1.946 0,0"
         style="fill:#403408;fill-opacity:1;fill-rule:nonzero;stroke:none"
         id="path258"
         inkscape:connector-curvature="0" /></g><g
       id="g260"
       transform="translate(160.5055,119.9167)"><path
         d="m 0,0 c 0,0 -4.649,-13.583 -17.411,-13.583 -12.761,0 -17.255,13.477 -17.255,13.477"
         style="fill:none;stroke:#403408;stroke-width:7;stroke-linecap:round;stroke-linejoin:miter;stroke-miterlimit:10;stroke-dasharray:none;stroke-opacity:1"
         id="path262"
         inkscape:connector-curvature="0" /></g><g
       id="g264"><g
         id="g266" /><g
         id="g272"><g
           clip-path="url(#clipPath268)"
           id="g274"
           style="opacity:0.60000598"><g
             transform="translate(104.9953,131.9968)"
             id="g276"><path
               d="m 0,0 c 0,-5.532 -4.485,-10.016 -10.016,-10.016 -5.532,0 -10.015,4.484 -10.015,10.016 0,5.532 4.483,10.016 10.015,10.016 C -4.485,10.016 0,5.532 0,0"
               style="fill:#ff758a;fill-opacity:1;fill-rule:nonzero;stroke:none"
               id="path278"
               inkscape:connector-curvature="0" /></g></g></g></g><g
       id="g280"><g
         id="g282" /><g
         id="g288"><g
           clip-path="url(#clipPath284)"
           id="g290"
           style="opacity:0.60000598"><g
             transform="translate(201.3805,131.9968)"
             id="g292"><path
               d="m 0,0 c 0,-5.532 -4.485,-10.016 -10.016,-10.016 -5.532,0 -10.015,4.484 -10.015,10.016 0,5.532 4.483,10.016 10.015,10.016 C -4.485,10.016 0,5.532 0,0"
               style="fill:#ff758a;fill-opacity:1;fill-rule:nonzero;stroke:none"
               id="path294"
               inkscape:connector-curvature="0" /></g></g></g></g><g
       id="g296"
       transform="translate(102.6323,170.8978)"><path
         d="M 0,0 C 0,0 9.865,-4.059 13.377,4.768"
         style="fill:none;stroke:#403408;stroke-width:4;stroke-linecap:round;stroke-linejoin:miter;stroke-miterlimit:10;stroke-dasharray:none;stroke-opacity:1"
         id="path298"
         inkscape:connector-curvature="0" /></g><g
       id="g300"
       transform="translate(167.5925,174.7557)"><path
         d="M 0,0 C 8.431,4.377 13.123,-5.111 13.123,-5.111"
         style="fill:none;stroke:#403408;stroke-width:4;stroke-linecap:round;stroke-linejoin:miter;stroke-miterlimit:10;stroke-dasharray:none;stroke-opacity:1"
         id="path302"
         inkscape:connector-curvature="0" /></g><g
       id="g304"
       transform="translate(382.2433,497.6323)"><path
         d="m 0,0 c -1.185,-37.995 -32.95,-67.836 -70.945,-66.65 -37.995,1.184 -67.836,32.947 -66.649,70.942 1.185,37.997 32.947,67.837 70.942,66.652 C -28.657,69.759 1.185,37.996 0,0"
         style="fill:#ffd21f;fill-opacity:1;fill-rule:nonzero;stroke:none"
         id="path306"
         inkscape:connector-curvature="0" /></g><g
       id="g308"
       transform="translate(344.4457,490.5834)"><path
         d="m 0,0 c 0,0 -6.553,-9.917 -31.138,-9.917 -24.585,0 -30.861,9.84 -30.861,9.84"
         style="fill:none;stroke:#403408;stroke-width:7;stroke-linecap:round;stroke-linejoin:miter;stroke-miterlimit:10;stroke-dasharray:none;stroke-opacity:1"
         id="path310"
         inkscape:connector-curvature="0" /></g><g
       id="g312"
       transform="translate(337.0512,529.0955)"><path
         d="m 0,0 c 3.469,1.382 6.728,-0.051 8.79,-2.891 2.152,2.771 5.456,4.098 8.879,2.603 4.299,-1.876 5.131,-6.388 3.255,-10.688 -1.353,-3.102 -7.254,-8.881 -10.437,-11.86 C 9.34,-23.909 7.554,-23.88 6.444,-22.77 3.359,-19.689 -2.35,-13.721 -3.602,-10.577 -5.337,-6.218 -4.358,-1.736 0,0"
         style="fill:#ff5a58;fill-opacity:1;fill-rule:nonzero;stroke:none"
         id="path314"
         inkscape:connector-curvature="0" /></g><g
       id="g316"
       transform="translate(272.3846,529.0955)"><path
         d="m 0,0 c 3.469,1.382 6.728,-0.051 8.79,-2.891 2.152,2.771 5.456,4.098 8.879,2.603 4.299,-1.876 5.131,-6.388 3.255,-10.688 -1.353,-3.102 -7.254,-8.881 -10.437,-11.86 C 9.34,-23.909 7.554,-23.88 6.444,-22.77 3.359,-19.689 -2.35,-13.721 -3.602,-10.577 -5.337,-6.218 -4.358,-1.736 0,0"
         style="fill:#ff5a58;fill-opacity:1;fill-rule:nonzero;stroke:none"
         id="path318"
         inkscape:connector-curvature="0" /></g><g
       id="g4456"
       inkscape:export-xdpi="90"
       inkscape:export-ydpi="90"><g
         transform="translate(722.825,679.3362)"
         id="g320"><path
           inkscape:connector-curvature="0"
           id="path322"
           style="fill:#ffd21f;fill-opacity:1;fill-rule:nonzero;stroke:none"
           d="m 0,0 c 0,-38.014 -30.818,-68.831 -68.832,-68.831 -38.013,0 -68.829,30.817 -68.829,68.831 0,38.015 30.816,68.831 68.829,68.831 C -30.818,68.831 0,38.015 0,0" /></g><g
         transform="translate(629.1754,669.0833)"
         id="g324"><path
           inkscape:connector-curvature="0"
           id="path326"
           style="fill:#403408;fill-opacity:1;fill-rule:nonzero;stroke:none"
           d="m 0,0 c -1.093,-0.004 -1.847,-1.515 -1.432,-2.895 2.152,-7.173 9.344,-25.233 27.183,-25.233 17.83,0 25.184,18.185 27.404,25.421 0.426,1.388 -0.335,2.915 -1.436,2.911 L 0,0 Z" /></g><g
         id="g328"><g
           clip-path="url(#clipPath332)"
           id="g330"><g
             transform="translate(674.0607,640.9167)"
             id="g336"><path
               inkscape:connector-curvature="0"
               id="path338"
               style="fill:#ff5a58;fill-opacity:1;fill-rule:nonzero;stroke:none"
               d="m 0,0 c 0,-7.939 -8.693,-14.375 -19.417,-14.375 -10.723,0 -19.416,6.436 -19.416,14.375 0,7.939 8.693,14.375 19.416,14.375 C -8.693,14.375 0,7.939 0,0" /></g></g></g><g
         transform="translate(675.4108,684.5833)"
         id="g348"><path
           inkscape:connector-curvature="0"
           id="path350"
           style="fill:none;stroke:#403408;stroke-width:7;stroke-linecap:round;stroke-linejoin:miter;stroke-miterlimit:10;stroke-dasharray:none;stroke-opacity:1"
           d="m 0,0 c 0,0 -0.125,10.667 9.375,10.667 9.5,0 9.292,-10.584 9.292,-10.584" /></g><g
         transform="translate(613.9108,684.5833)"
         id="g352"><path
           inkscape:connector-curvature="0"
           id="path354"
           style="fill:none;stroke:#403408;stroke-width:7;stroke-linecap:round;stroke-linejoin:miter;stroke-miterlimit:10;stroke-dasharray:none;stroke-opacity:1"
           d="m 0,0 c 0,0 -0.125,10.667 9.375,10.667 9.5,0 9.292,-10.584 9.292,-10.584" /></g><g
         id="g356"><g
           id="g358" /><g
           id="g364"><g
             style="opacity:0.60000598"
             id="g366"
             clip-path="url(#clipPath360)"><g
               id="g368"
               transform="translate(615.8171,668.9968)"><path
                 inkscape:connector-curvature="0"
                 id="path370"
                 style="fill:#ff758a;fill-opacity:1;fill-rule:nonzero;stroke:none"
                 d="m 0,0 c 0,-5.532 -4.485,-10.016 -10.016,-10.016 -5.532,0 -10.015,4.484 -10.015,10.016 0,5.532 4.483,10.016 10.015,10.016 C -4.485,10.016 0,5.532 0,0" /></g></g></g></g><g
         id="g372"><g
           id="g374" /><g
           id="g380"><g
             style="opacity:0.60000598"
             id="g382"
             clip-path="url(#clipPath376)"><g
               id="g384"
               transform="translate(712.2023,668.9968)"><path
                 inkscape:connector-curvature="0"
                 id="path386"
                 style="fill:#ff758a;fill-opacity:1;fill-rule:nonzero;stroke:none"
                 d="m 0,0 c 0,-5.532 -4.485,-10.016 -10.016,-10.016 -5.532,0 -10.015,4.484 -10.015,10.016 0,5.532 4.483,10.016 10.015,10.016 C -4.485,10.016 0,5.532 0,0" /></g></g></g></g></g><g
       id="g388"
       transform="translate(212.0031,499.7787)"><path
         d="m 0,0 c 0,-38.014 -30.817,-68.831 -68.831,-68.831 -38.013,0 -68.83,30.817 -68.83,68.831 0,38.015 30.817,68.831 68.83,68.831 C -30.817,68.831 0,38.015 0,0"
         style="fill:#ffd21f;fill-opacity:1;fill-rule:nonzero;stroke:none"
         id="path390"
         inkscape:connector-curvature="0" /></g><g
       id="g392"
       transform="translate(102.4639,507.4045)"><path
         d="m 0,0 c 0,0 -0.125,10.667 9.375,10.667 9.5,0 9.292,-10.584 9.292,-10.584"
         style="fill:none;stroke:#403408;stroke-width:7;stroke-linecap:round;stroke-linejoin:miter;stroke-miterlimit:10;stroke-dasharray:none;stroke-opacity:1"
         id="path394"
         inkscape:connector-curvature="0" /></g><g
       id="g396"
       transform="translate(165.2139,507.4045)"><path
         d="m 0,0 c 0,0 -0.125,10.667 9.375,10.667 9.5,0 9.292,-10.584 9.292,-10.584"
         style="fill:none;stroke:#403408;stroke-width:7;stroke-linecap:round;stroke-linejoin:miter;stroke-miterlimit:10;stroke-dasharray:none;stroke-opacity:1"
         id="path398"
         inkscape:connector-curvature="0" /></g><g
       id="g400"
       transform="translate(107.8732,488.0833)"><path
         d="m 0,0 c -1.492,-0.004 -2.521,-1.515 -1.955,-2.895 2.938,-7.173 12.754,-25.233 37.1,-25.233 24.334,0 34.371,18.185 37.402,25.421 0.581,1.388 -0.457,2.915 -1.961,2.911 L 0,0 Z"
         style="fill:#403408;fill-opacity:1;fill-rule:nonzero;stroke:none"
         id="path402"
         inkscape:connector-curvature="0" /></g><g
       id="g404"
       transform="translate(118.8583,483.7463)"><path
         d="M 0,0 C 0,0 2.826,-39.806 25.193,-39.237 47.557,-38.666 48.297,1.232 48.297,1.232"
         style="fill:#ff5a58;fill-opacity:1;fill-rule:nonzero;stroke:none"
         id="path406"
         inkscape:connector-curvature="0" /></g><g
       id="g408"><g
         id="g410"
         clip-path="url(#clipPath412)"><g
           id="g416"
           transform="translate(111.0183,488.8992)"><path
             d="m 0,0 c -1.359,-0.001 -2.296,-0.407 -1.781,-0.779 2.677,-1.929 11.618,-6.787 33.794,-6.787 22.167,0 31.309,4.892 34.07,6.838 0.529,0.373 -0.416,0.784 -1.786,0.783 L 0,0 Z"
             style="fill:#ffffff;fill-opacity:1;fill-rule:nonzero;stroke:none"
             id="path418"
             inkscape:connector-curvature="0" /></g></g></g><g
       id="g428"
       transform="translate(552.5165,497.6323)"><path
         d="m 0,0 c -1.186,-37.995 -32.949,-67.835 -70.944,-66.65 -37.995,1.185 -67.835,32.948 -66.649,70.943 1.185,37.996 32.947,67.836 70.942,66.65 C -28.656,69.758 1.186,37.996 0,0"
         style="fill:#ffd21f;fill-opacity:1;fill-rule:nonzero;stroke:none"
         id="path430"
         inkscape:connector-curvature="0" /></g><g
       id="g432"
       transform="translate(452.6887,487.3952)"><path
         d="m 0,0 c -1.311,-0.004 -2.216,-1.332 -1.719,-2.545 2.583,-6.306 11.212,-22.182 32.614,-22.182 21.393,0 30.216,15.986 32.881,22.348 0.51,1.219 -0.402,2.562 -1.724,2.558 L 0,0 Z"
         style="fill:#ffffff;fill-opacity:1;fill-rule:nonzero;stroke:none"
         id="path434"
         inkscape:connector-curvature="0" /></g><g
       id="g436"
       transform="translate(452.6887,487.3952)"><path
         d="m 0,0 c -1.311,-0.004 -2.216,-1.332 -1.719,-2.545 2.583,-6.306 11.212,-22.182 32.614,-22.182 21.393,0 30.216,15.986 32.881,22.348 0.51,1.219 -0.402,2.562 -1.724,2.558 L 0,0 Z"
         style="fill:none;stroke:#ffffff;stroke-width:6.15399981;stroke-linecap:round;stroke-linejoin:miter;stroke-miterlimit:10;stroke-dasharray:none;stroke-opacity:1"
         id="path438"
         inkscape:connector-curvature="0" /></g><g
       id="g440"
       transform="translate(467.3782,477.5021)"><path
         d="M 0,0 C -6.076,0.743 -12.121,2.193 -17.589,5.01"
         style="fill:none;stroke:#f2f2f2;stroke-width:2.76399994;stroke-linecap:round;stroke-linejoin:miter;stroke-miterlimit:10;stroke-dasharray:none;stroke-opacity:1"
         id="path442"
         inkscape:connector-curvature="0" /></g><g
       id="g444"
       transform="translate(516.4714,481.7762)"><path
         d="M 0,0 C -4.518,-1.859 -9.261,-3.126 -14.075,-3.935"
         style="fill:none;stroke:#f2f2f2;stroke-width:2.76399994;stroke-linecap:round;stroke-linejoin:miter;stroke-miterlimit:10;stroke-dasharray:none;stroke-opacity:1"
         id="path446"
         inkscape:connector-curvature="0" /></g><g
       id="g448"><g
         id="g450" /><g
         id="g456"><g
           clip-path="url(#clipPath452)"
           id="g458"
           style="opacity:0.60000598"><g
             transform="translate(445.5428,491.9968)"
             id="g460"><path
               d="m 0,0 c 0,-5.532 -4.485,-10.016 -10.016,-10.016 -5.532,0 -10.015,4.484 -10.015,10.016 0,5.532 4.483,10.016 10.015,10.016 C -4.485,10.016 0,5.532 0,0"
               style="fill:#ff758a;fill-opacity:1;fill-rule:nonzero;stroke:none"
               id="path462"
               inkscape:connector-curvature="0" /></g></g></g></g><g
       id="g464"><g
         id="g466" /><g
         id="g472"><g
           clip-path="url(#clipPath468)"
           id="g474"
           style="opacity:0.60000598"><g
             transform="translate(541.928,491.9968)"
             id="g476"><path
               d="m 0,0 c 0,-5.532 -4.485,-10.016 -10.016,-10.016 -5.532,0 -10.015,4.484 -10.015,10.016 0,5.532 4.483,10.016 10.015,10.016 C -4.485,10.016 0,5.532 0,0"
               style="fill:#ff758a;fill-opacity:1;fill-rule:nonzero;stroke:none"
               id="path478"
               inkscape:connector-curvature="0" /></g></g></g></g><g
       id="g480"
       transform="translate(447.0117,522.0713)"><path
         d="M 0,0 16.523,-9.375 0.129,-18.667"
         style="fill:none;stroke:#403408;stroke-width:8.71199989;stroke-linecap:round;stroke-linejoin:round;stroke-miterlimit:10;stroke-dasharray:none;stroke-opacity:1"
         id="path482"
         inkscape:connector-curvature="0" /></g><g
       id="g484"
       transform="translate(520.4282,503.4044)"><path
         d="m 0,0 -16.144,9.375 16.018,9.292"
         style="fill:none;stroke:#403408;stroke-width:8.61200047;stroke-linecap:round;stroke-linejoin:round;stroke-miterlimit:10;stroke-dasharray:none;stroke-opacity:1"
         id="path486"
         inkscape:connector-curvature="0" /></g><g
       id="g488"
       transform="translate(382.2763,320.2213)"><path
         d="m 0,0 c 0,-38.014 -30.817,-68.831 -68.832,-68.831 -38.013,0 -68.829,30.817 -68.829,68.831 0,38.015 30.816,68.831 68.829,68.831 C -30.817,68.831 0,38.015 0,0"
         style="fill:#ffd21f;fill-opacity:1;fill-rule:nonzero;stroke:none"
         id="path490"
         inkscape:connector-curvature="0" /></g><g
       id="g492"
       transform="translate(282.1122,319.7469)"><path
         d="m 0,0 0,0 c -2.75,0 -5,2.25 -5,5 l 0,17.333 c 0,2.75 2.25,5 5,5 2.75,0 5,-2.25 5,-5 L 5,5 C 5,2.25 2.75,0 0,0"
         style="fill:#403408;fill-opacity:1;fill-rule:nonzero;stroke:none"
         id="path494"
         inkscape:connector-curvature="0" /></g><g
       id="g496"
       transform="translate(344.7789,319.7469)"><path
         d="m 0,0 0,0 c -2.75,0 -5,2.25 -5,5 l 0,17.333 c 0,2.75 2.25,5 5,5 2.75,0 5,-2.25 5,-5 L 5,5 C 5,2.25 2.75,0 0,0"
         style="fill:#403408;fill-opacity:1;fill-rule:nonzero;stroke:none"
         id="path498"
         inkscape:connector-curvature="0" /></g><g
       id="g500"
       transform="translate(288.7793,293.0178)"><path
         d="M 0,0 C 0,0 5.214,18.25 24.776,18.25 44.339,18.25 49.333,0.143 49.333,0.143"
         style="fill:none;stroke:#403408;stroke-width:7;stroke-linecap:round;stroke-linejoin:miter;stroke-miterlimit:10;stroke-dasharray:none;stroke-opacity:1"
         id="path502"
         inkscape:connector-curvature="0" /></g><g
       id="g504"
       transform="translate(722.825,140.6637)"
       inkscape:export-xdpi="90"
       inkscape:export-ydpi="90"><path
         d="m 0,0 c 0,-38.014 -30.818,-68.831 -68.832,-68.831 -38.013,0 -68.829,30.817 -68.829,68.831 0,38.015 30.816,68.831 68.829,68.831 C -30.818,68.831 0,38.015 0,0"
         style="fill:#ffd21f;fill-opacity:1;fill-rule:nonzero;stroke:none"
         id="path506"
         inkscape:connector-curvature="0" /></g><g
       id="g508"
       transform="translate(704.7466,113.5912)"
       inkscape:export-xdpi="90"
       inkscape:export-ydpi="90"><path
         d="m 0,0 c 0,-5.308 -4.305,-9.612 -9.615,-9.612 -5.309,0 -9.613,4.304 -9.613,9.612 0,5.311 9.613,23.438 9.613,23.438 C -9.615,23.438 0,5.311 0,0"
         style="fill:#2fa7bf;fill-opacity:1;fill-rule:nonzero;stroke:none"
         id="path510"
         inkscape:connector-curvature="0" /></g><g
       id="g512"
       transform="translate(694.7027,157.7378)"
       inkscape:export-xdpi="90"
       inkscape:export-ydpi="90"><path
         d="m 0,0 c 0,0 0.125,-10.667 -9.375,-10.667 -9.5,0 -9.292,10.584 -9.292,10.584"
         style="fill:none;stroke:#403408;stroke-width:7;stroke-linecap:round;stroke-linejoin:miter;stroke-miterlimit:10;stroke-dasharray:none;stroke-opacity:1"
         id="path514"
         inkscape:connector-curvature="0" /></g><g
       id="g516"
       transform="translate(631.9527,157.7378)"
       inkscape:export-xdpi="90"
       inkscape:export-ydpi="90"><path
         d="m 0,0 c 0,0 0.125,-10.667 -9.375,-10.667 -9.5,0 -9.292,10.584 -9.292,10.584"
         style="fill:none;stroke:#403408;stroke-width:7;stroke-linecap:round;stroke-linejoin:miter;stroke-miterlimit:10;stroke-dasharray:none;stroke-opacity:1"
         id="path518"
         inkscape:connector-curvature="0" /></g><g
       id="g520"
       transform="translate(629.3279,116.0178)"
       inkscape:export-xdpi="90"
       inkscape:export-ydpi="90"><path
         d="M 0,0 C 0,0 5.214,18.25 24.776,18.25 44.339,18.25 49.333,0.143 49.333,0.143"
         style="fill:none;stroke:#403408;stroke-width:7;stroke-linecap:round;stroke-linejoin:miter;stroke-miterlimit:10;stroke-dasharray:none;stroke-opacity:1"
         id="path522"
         inkscape:connector-curvature="0" /></g><g
       id="g524"
       transform="translate(552.5507,320.2213)"
       inkscape:export-xdpi="90"
       inkscape:export-ydpi="90"><path
         d="m 0,0 c 0,-38.014 -30.817,-68.831 -68.831,-68.831 -38.013,0 -68.83,30.817 -68.83,68.831 0,38.015 30.817,68.831 68.83,68.831 C -30.817,68.831 0,38.015 0,0"
         style="fill:#ffd21f;fill-opacity:1;fill-rule:nonzero;stroke:none"
         id="path526"
         inkscape:connector-curvature="0" /></g><g
       id="g528"
       transform="translate(447.0117,345.9133)"
       inkscape:export-xdpi="90"
       inkscape:export-ydpi="90"><path
         d="M 0,0 16.523,-9.375 0.129,-18.667"
         style="fill:none;stroke:#403408;stroke-width:8.71199989;stroke-linecap:round;stroke-linejoin:round;stroke-miterlimit:10;stroke-dasharray:none;stroke-opacity:1"
         id="path530"
         inkscape:connector-curvature="0" /></g><g
       id="g532"
       transform="translate(520.4282,327.2464)"
       inkscape:export-xdpi="90"
       inkscape:export-ydpi="90"><path
         d="m 0,0 -16.144,9.375 16.018,9.292"
         style="fill:none;stroke:#403408;stroke-width:8.61200047;stroke-linecap:round;stroke-linejoin:round;stroke-miterlimit:10;stroke-dasharray:none;stroke-opacity:1"
         id="path534"
         inkscape:connector-curvature="0" /></g><g
       id="g536"
       transform="translate(459.0536,293.0178)"
       inkscape:export-xdpi="90"
       inkscape:export-ydpi="90"><path
         d="M 0,0 C 0,0 5.214,18.25 24.776,18.25 44.339,18.25 49.333,0.143 49.333,0.143"
         style="fill:none;stroke:#403408;stroke-width:7;stroke-linecap:round;stroke-linejoin:miter;stroke-miterlimit:10;stroke-dasharray:none;stroke-opacity:1"
         id="path538"
         inkscape:connector-curvature="0" /></g><g
       id="g540"
       transform="translate(552.5507,140.6637)"><path
         d="m 0,0 c 0,-38.014 -30.818,-68.831 -68.832,-68.831 -38.013,0 -68.829,30.817 -68.829,68.831 0,38.015 30.816,68.831 68.829,68.831 C -30.818,68.831 0,38.015 0,0"
         style="fill:#ffd21f;fill-opacity:1;fill-rule:nonzero;stroke:none"
         id="path542"
         inkscape:connector-curvature="0" /></g><g
       id="g544"
       transform="translate(452.3866,136.4225)"><path
         d="m 0,0 0,0 c -2.75,0 -5,2.25 -5,5 l 0,12 c 0,2.75 2.25,5 5,5 2.75,0 5,-2.25 5,-5 L 5,5 C 5,2.25 2.75,0 0,0"
         style="fill:#403408;fill-opacity:1;fill-rule:nonzero;stroke:none"
         id="path546"
         inkscape:connector-curvature="0" /></g><g
       id="g548"
       transform="translate(515.0533,136.4225)"><path
         d="m 0,0 0,0 c -2.75,0 -5,2.25 -5,5 l 0,12 c 0,2.75 2.25,5 5,5 2.75,0 5,-2.25 5,-5 L 5,5 C 5,2.25 2.75,0 0,0"
         style="fill:#403408;fill-opacity:1;fill-rule:nonzero;stroke:none"
         id="path550"
         inkscape:connector-curvature="0" /></g><g
       id="g552"
       transform="translate(444.3051,121)"><path
         d="M 0,0 78.83,0"
         style="fill:none;stroke:#403408;stroke-width:6;stroke-linecap:round;stroke-linejoin:miter;stroke-miterlimit:10;stroke-dasharray:none;stroke-opacity:1"
         id="path554"
         inkscape:connector-curvature="0" /></g></g></svg>