<?xml version="1.0" encoding="UTF-8" standalone="no"?>
<!-- Created with Inkscape (http://www.inkscape.org/) -->

<svg
   xmlns:dc="http://purl.org/dc/elements/1.1/"
   xmlns:cc="http://creativecommons.org/ns#"
   xmlns:rdf="http://www.w3.org/1999/02/22-rdf-syntax-ns#"
   xmlns:svg="http://www.w3.org/2000/svg"
   xmlns="http://www.w3.org/2000/svg"
   xmlns:sodipodi="http://sodipodi.sourceforge.net/DTD/sodipodi-0.dtd"
   xmlns:inkscape="http://www.inkscape.org/namespaces/inkscape"
   id="svg2"
   version="1.1"
   inkscape:version="0.91 r13725"
   xml:space="preserve"
   width="80"
   height="80"
   viewBox="0 0 80 80"
   sodipodi:docname="clurit.svg"
   enable-background="new"
   inkscape:export-filename="/home/dallasarivle/Documents/plantown/aset/cluritPKI.png"
   inkscape:export-xdpi="90"
   inkscape:export-ydpi="90"><metadata
     id="metadata8"><rdf:RDF><cc:Work
         rdf:about=""><dc:format>image/svg+xml</dc:format><dc:type
           rdf:resource="http://purl.org/dc/dcmitype/StillImage" /><dc:title /></cc:Work></rdf:RDF></metadata><defs
     id="defs6"><filter
       inkscape:collect="always"
       style="color-interpolation-filters:sRGB"
       id="filter4288"><feBlend
         inkscape:collect="always"
         mode="multiply"
         in2="BackgroundImage"
         id="feBlend4290" /></filter></defs><sodipodi:namedview
     pagecolor="#ffffff"
     bordercolor="#666666"
     borderopacity="1"
     objecttolerance="10"
     gridtolerance="10"
     guidetolerance="10"
     inkscape:pageopacity="0"
     inkscape:pageshadow="2"
     inkscape:window-width="1366"
     inkscape:window-height="695"
     id="namedview4"
     showgrid="false"
     inkscape:zoom="3.0447776"
     inkscape:cx="13.644354"
     inkscape:cy="9.4489882"
     inkscape:window-x="0"
     inkscape:window-y="27"
     inkscape:window-maximized="1"
     inkscape:current-layer="layer3" /><g
     inkscape:groupmode="layer"
     id="layer2"
     inkscape:label="warna"
     style="display:inline"><path
       style="fill:#bf6600;fill-opacity:1;fill-rule:evenodd;stroke:none;stroke-width:1px;stroke-linecap:butt;stroke-linejoin:miter;stroke-opacity:1"
       d="m 25.584678,59.051233 11.536441,0.0583 1.897441,3.964552 -1.290262,15.858206 -2.125132,0.52472 -10.625669,-0.349813 -1.290261,-3.614739 0.0759,-13.409512 z"
       id="path4168"
       inkscape:connector-curvature="0" /><path
       style="display:inline;fill:#e18200;fill-opacity:1;fill-rule:evenodd;stroke:none;stroke-width:1px;stroke-linecap:butt;stroke-linejoin:miter;stroke-opacity:1"
       d="m 24.898499,59.162566 1.523601,0.0583 c 0,0 -0.713917,6.290143 -0.782784,10.027983 -0.04413,2.395254 0.959554,9.789253 0.945177,9.794775 l -0.568374,0.52472 -1.71087,-0.349814 -0.8298,-3.614738 -0.625988,-13.409513 z"
       id="path4168-3"
       inkscape:connector-curvature="0"
       sodipodi:nodetypes="ccscccccc" /><path
       style="fill:#9fa0a6;fill-opacity:1;fill-rule:evenodd;stroke:none;stroke-width:1px;stroke-linecap:butt;stroke-linejoin:miter;stroke-opacity:1"
       d="m 16.249268,17.636409 4.008696,-0.236873 6.475586,-3.789979 6.783949,-3.316231 3.237794,-1.065931 4.933779,-0.3553104 4.471239,0.9474945 5.550503,2.8424829 3.546154,4.145289 1.387626,5.684968 -0.462543,3.31623 -7.40067,8.172141 -11.255188,11.014625 -10.48428,8.290576 0.30836,5.921842 7.863212,0.35531 0.462543,-6.040278 3.083612,-1.302804 14.338799,-6.632463 8.788294,-5.684967 2.621072,-2.487173 1.695988,-3.434668 3.237792,-6.869336 0.770904,-7.698393 L 68.362321,15.0308 61.270013,9.0323325 49.398104,2.2396228 42.151615,0.93681773 l -6.475587,0 -6.167227,1.65811547 -6.321406,4.1452887 -3.854515,4.6190371 -2.158528,4.382161 z"
       id="path4185"
       inkscape:connector-curvature="0"
       sodipodi:nodetypes="cccccccccccccccccccccccccccccccccc" /><path
       style="fill:#ffffff;fill-opacity:1;fill-rule:evenodd;stroke:none;stroke-width:1px;stroke-linecap:butt;stroke-linejoin:miter;stroke-opacity:1"
       d="m 17.498929,18.080433 5.259437,-1.649036 11.484895,-5.93653 7.191478,-1.1543252 6.010785,1.4841322 3.434734,2.473554 3.542072,3.875235 2.146709,5.689175 -1.18069,4.040139 -24.901828,22.921602 -3.220064,3.21562 0,5.606723 2.790722,0.494711 -0.107342,-5.689175 25.223834,-22.674247 c 0,0 3.067492,-2.734775 3.971413,-4.369945 1.664328,-3.010723 -0.966015,-20.2831446 -19.642387,-19.4586265 0,0 -11.05555,-0.4122587 -22.003768,11.1309935 z"
       id="path4187"
       inkscape:connector-curvature="0"
       sodipodi:nodetypes="cccccccccccccccscc" /></g><g
     inkscape:groupmode="layer"
     id="layer3"
     inkscape:label="bayangan"
     style="filter:url(#filter4288);opacity:0.436"><path
       style="fill:#000000;fill-opacity:1;fill-rule:evenodd;stroke:none;stroke-width:1px;stroke-linecap:butt;stroke-linejoin:miter;stroke-opacity:1"
       d="M 16.604869,18.225241 26.697879,5.3653225 31.586505,3.0371278 40.073785,2.368595 45.543,3.3878988 l 5.047006,1.3934156 10.531724,6.4112446 7.044351,8.52471 -1.982257,11.161412 -3.37809,5.46338 -17.222302,10.344167 -11.909221,5.097106 0,7.547668 c 0,0 -0.121284,1.047672 1.951666,1.679584 4.107807,1.252213 2.002126,10.339915 0.212313,15.075413 -0.541874,1.433694 -2.512333,3.333411 -2.512333,3.333411 l 4.296365,0.232236 0.928943,-5.225308 0.464472,-9.637792 -1.393415,-5.341426 -0.58059,-0.464472 -1.625652,0 0.116118,-6.038135 5.689781,-2.206241 16.837105,-9.17332 6.85096,-4.296364 1.509534,-2.554596 3.019067,-7.896022 0.232236,-7.896021 L 67.696776,15.090056 62.587585,9.8647471 49.582372,2.781551 38.667283,1.1558995 28.913374,2.4331971 24.268655,5.5683823 20.204526,9.7486291 16.604869,15.554528 16.02428,18.109123 Z"
       id="path4189"
       inkscape:connector-curvature="0"
       sodipodi:nodetypes="cccccccccccccsscccccccccccccccccccccccc" /></g><g
     inkscape:groupmode="layer"
     id="layer1"
     inkscape:label="garis"><path
       style="fill:none;fill-rule:evenodd;stroke:#000000;stroke-width:1px;stroke-linecap:butt;stroke-linejoin:miter;stroke-opacity:1"
       d="m 25.416689,59.141897 c -3.937594,1.184512 -2.064552,20.68267 0,20.061609 1.235375,-0.371627 11.571938,0.611835 12.116918,0 1.383308,-1.553014 2.651849,-20.061609 -0.856754,-20.061609 -3.08356,0 -10.090218,-0.351946 -11.260164,0 z"
       id="path4156"
       inkscape:connector-curvature="0"
       sodipodi:nodetypes="sssss" /><path
       style="fill:none;fill-rule:evenodd;stroke:#000000;stroke-width:1px;stroke-linecap:butt;stroke-linejoin:miter;stroke-opacity:1"
       d="m 35.266213,59.279305 0,-6.320782 c 0,0 26.274079,-11.611823 29.989387,-16.616671 0.610156,-0.821933 5.786074,-8.648399 4.239245,-16.723844 C 67.17031,7.4824375 27.893618,-14.745738 16.11018,18.555257"
       id="path4158"
       inkscape:connector-curvature="0"
       sodipodi:nodetypes="ccssc" /><path
       style="fill:none;fill-rule:evenodd;stroke:#000000;stroke-width:1px;stroke-linecap:butt;stroke-linejoin:miter;stroke-opacity:1"
       d="m 27.187795,58.53269 0,-5.44109 c 0,0 22.915562,-19.261187 28.134423,-26.775372 C 58.72142,21.42201 51.72623,5.7722815 35.279508,10.060862 30.355151,11.344917 19.618951,19.036792 16.005192,17.85845"
       id="path4166"
       inkscape:connector-curvature="0"
       sodipodi:nodetypes="ccssc" /></g></svg>