<?xml version="1.0" encoding="UTF-8" standalone="no"?>
<!-- Created with Inkscape (http://www.inkscape.org/) -->

<svg
   xmlns:dc="http://purl.org/dc/elements/1.1/"
   xmlns:cc="http://creativecommons.org/ns#"
   xmlns:rdf="http://www.w3.org/1999/02/22-rdf-syntax-ns#"
   xmlns:svg="http://www.w3.org/2000/svg"
   xmlns="http://www.w3.org/2000/svg"
   xmlns:xlink="http://www.w3.org/1999/xlink"
   xmlns:sodipodi="http://sodipodi.sourceforge.net/DTD/sodipodi-0.dtd"
   xmlns:inkscape="http://www.inkscape.org/namespaces/inkscape"
   id="svg2"
   version="1.1"
   inkscape:version="0.91 r13725"
   width="1048.6663"
   height="979.75922"
   viewBox="0 0 1048.6663 979.75922"
   sodipodi:docname="peta KABUPATEN JEMBER.svg"
   inkscape:export-filename="/home/dallasarivle/Documents/plantown/aset/petaJember.png"
   inkscape:export-xdpi="90"
   inkscape:export-ydpi="90">
  <metadata
     id="metadata8">
    <rdf:RDF>
      <cc:Work
         rdf:about="">
        <dc:format>image/svg+xml</dc:format>
        <dc:type
           rdf:resource="http://purl.org/dc/dcmitype/StillImage" />
        <dc:title />
      </cc:Work>
    </rdf:RDF>
  </metadata>
  <defs
     id="defs6">
    <linearGradient
       inkscape:collect="always"
       id="linearGradient4295">
      <stop
         style="stop-color:#00a2ff;stop-opacity:1;"
         offset="0"
         id="stop4297" />
      <stop
         style="stop-color:#00a2ff;stop-opacity:0;"
         offset="1"
         id="stop4299" />
    </linearGradient>
    <linearGradient
       inkscape:collect="always"
       id="linearGradient4201">
      <stop
         style="stop-color:#ffff00;stop-opacity:1;"
         offset="0"
         id="stop4203" />
      <stop
         style="stop-color:#ffff00;stop-opacity:0;"
         offset="1"
         id="stop4205" />
    </linearGradient>
    <linearGradient
       inkscape:collect="always"
       xlink:href="#linearGradient4201"
       id="linearGradient4207"
       x1="451.17905"
       y1="805.03394"
       x2="1025.4227"
       y2="32.779686"
       gradientUnits="userSpaceOnUse"
       gradientTransform="translate(151.38937,78.035324)" />
    <linearGradient
       inkscape:collect="always"
       xlink:href="#linearGradient4295"
       id="linearGradient4301"
       x1="399.72574"
       y1="819.56573"
       x2="309.19696"
       y2="963.46411"
       gradientUnits="userSpaceOnUse" />
  </defs>
  <sodipodi:namedview
     pagecolor="#ffffff"
     bordercolor="#666666"
     borderopacity="1"
     objecttolerance="10"
     gridtolerance="10"
     guidetolerance="10"
     inkscape:pageopacity="0"
     inkscape:pageshadow="2"
     inkscape:window-width="1366"
     inkscape:window-height="710"
     id="namedview4"
     showgrid="false"
     inkscape:zoom="0.29483605"
     inkscape:cx="454.44566"
     inkscape:cy="533.36269"
     inkscape:window-x="0"
     inkscape:window-y="27"
     inkscape:window-maximized="1"
     inkscape:current-layer="layer3"
     fit-margin-top="0"
     fit-margin-left="0"
     fit-margin-right="0"
     fit-margin-bottom="0" />
  <g
     inkscape:groupmode="layer"
     id="layer3"
     inkscape:label="warna"
     style="display:inline"
     transform="translate(-151.38937,-78.035324)">
    <rect
       style="opacity:1;fill:#0067ff;fill-opacity:1;fill-rule:nonzero;stroke:#ffffff;stroke-width:1.80599999;stroke-linecap:round;stroke-linejoin:round;stroke-miterlimit:4;stroke-dasharray:none;stroke-dashoffset:0;stroke-opacity:1"
       id="rect4166"
       width="1046.8602"
       height="986.11493"
       x="152.29237"
       y="78.938324" />
    <rect
       style="display:inline;opacity:1;fill:url(#linearGradient4301);fill-opacity:1;fill-rule:nonzero;stroke:#ffffff;stroke-width:1.80599999;stroke-linecap:round;stroke-linejoin:round;stroke-miterlimit:4;stroke-dasharray:none;stroke-dashoffset:0;stroke-opacity:1"
       id="rect4166-5"
       width="1046.8602"
       height="986.11493"
       x="153.60332"
       y="69.889618" />
    <path
       style="display:inline;fill:#ffffff;fill-opacity:1;fill-rule:evenodd;stroke:none;stroke-width:1px;stroke-linecap:butt;stroke-linejoin:miter;stroke-opacity:1"
       d="m 151.49182,644.25594 c 0,0 156.86685,5.08758 206.89465,139.90827 0,0 60.20295,-50.45177 100.90354,-18.23047 l 1.27189,16.11065 7.2074,5.08757 -3.81568,9.32722 7.63136,5.51154 14.41479,-3.39172 64.4426,27.98166 c 0,0 8.90325,-34.34112 37.30887,4.23964 0,0 13.1429,-21.19822 43.66834,14.41479 0,0 8.90325,6.35947 16.53461,2.11982 0,0 7.20739,11.02308 -0.84793,15.26272 0,0 -4.66361,5.08758 2.54379,8.90326 0,0 16.95857,-2.11982 6.78343,25.0139 0,0 11.02307,-12.29497 18.23047,-0.84793 0,0 27.55769,-25.0139 31.37337,9.75118 l 16.11065,-18.65443 -4.23965,-5.08758 8.05533,-5.51153 14.41479,8.90325 3.39171,13.1429 -14.83875,33.91715 6.35947,0.42397 8.90325,-16.11065 3.39171,5.51154 6.78344,-8.47929 2.96775,16.53461 7.20739,-2.11982 25.43787,-11.44704 -8.90325,-7.2074 5.9355,-9.32721 9.75118,5.51153 22.89408,-10.17514 5.9355,-10.17515 21.62219,15.26272 -4.66361,28.82958 7.2074,8.05533 -11.44704,28.40562 12.71893,3.81568 2.54379,-20.77426 9.32721,-1.69586 1.2719,-17.80651 10.59911,0.42397 -2.96775,8.05532 6.78343,1.2719 -6.78343,6.78343 3.81568,15.68668 18.65443,-3.81568 4.66361,11.02308 12.71894,1.27189 6.78343,-6.35947 28.82958,16.95858 0.84793,5.08755 11.871,5.5116 15.26272,-6.3595 1.69586,-16.11065 6.78343,0.42396 3.39172,7.2074 5.08757,-1.2719 -2.54379,-8.05532 9.32726,-2.54379 c 0,0 39.42871,18.2305 24.16591,44.9402 l -7.9493,2.8618 -6.3595,-5.4056 -7.8433,6.7834 13.2489,10.2812 -2.5438,4.2396 8.1613,5.1936 3.6037,-3.3917 4.8756,-1.0599 2.5438,-7.6314 5.8295,0.424 0.9539,3.2857 7.4194,-6.2535 4.1336,2.2258 0,-7.9493 5.8296,0.212 0.6359,6.6774 1.2719,3.0738 -5.7235,7.3134 3.2857,4.3456 4.4516,-0.106 0.106,-3.6037 -3.6037,-1.1659 5.6176,-8.3733 -2.3319,-2.3318 3.1798,-2.1198 c 0,0 -5.0871,-35.74164 33.2858,-3.9641 l 5.9957,38.9724 30.5784,2.3983 2.3983,-11.3919 20.9852,-1.1992 5.3962,13.1907 2.3983,-18.5869 5.3962,-4.197 28.7796,2.3983 0,-956.324103 -1045.66098,0 z"
       id="path4158-3"
       inkscape:connector-curvature="0" />
    <path
       style="fill:#00ff00;fill-opacity:1;fill-rule:evenodd;stroke:none;stroke-width:1px;stroke-linecap:butt;stroke-linejoin:miter;stroke-opacity:1"
       d="m 263.18976,677.08615 4.87559,-6.57145 10.38713,-28.6176 3.39172,-13.56686 0,-5.08758 c 0,0 -10.38713,-9.11523 -5.29956,-26.28579 l -5.19356,-3.39172 1.37788,-6.99541 9.96317,-1.58987 7.41937,-6.88942 0.63595,-4.55762 4.55762,-1.58987 -2.33181,-3.17973 4.8756,-5.72352 5.29955,-1.80185 4.45163,0.95392 7.52537,1.27189 5.51154,-4.55761 -1.05992,-3.70969 8.58528,-14.09682 3.28573,-0.31797 6.04149,-4.7696 -0.52995,-7.94934 -2.96775,-9.85717 6.25347,-2.86176 10.28114,-8.90325 -1.48388,-11.55303 -4.13365,1.05991 -3.39172,-2.01383 -0.74193,-5.93551 5.72352,-7.52537 -1.05991,-5.51153 c 0,0 -8.90326,-4.02767 -9.75119,-13.03691 l -6.04149,-0.84793 3.97467,-5.9885 2.01383,0.15899 2.11982,-4.61061 -8.05532,-10.91709 1.85484,-3.39171 -0.52996,-7.04841 3.92168,-6.25348 -9.69819,-7.1544 -11.28805,-28.14064 7.0484,-14.89175 7.52537,-16.21664 6.88943,-0.21198 3.39171,-5.45855 11.18206,-3.39171 -0.31797,-4.23965 4.87559,-3.02074 6.09449,0.31797 -0.42396,-9.32722 3.92167,-9.91017 3.86867,3.17974 1.1659,3.4977 4.66361,0.52996 10.22815,11.71202 5.19356,-3.86868 12.93092,-0.053 8.58528,6.99541 0.21198,5.45854 6.20048,0.42397 3.70969,-6.51846 4.18665,4.02767 -1.05991,5.14056 5.29955,2.22582 8.3203,-2.06683 3.28573,0.95392 3.70969,-3.92167 c 0,0 32.53927,1.2189 16.6406,-27.71668 l 4.1575,-5.70306 2.6981,0.52463 0.67452,4.94651 8.01933,-0.89937 5.92082,10.26775 11.24205,2.24841 9.81806,7.11997 16.5633,4.27198 2.47325,-10.41764 8.69386,-1.12421 5.92081,-6.59534 11.61679,-2.77304 5.99576,-5.92081 2.77304,-8.9187 12.44121,2.24841 4.49682,-4.49682 16.18856,1.64884 2.77304,-8.01934 14.16499,0.97431 0.82442,9.74312 4.27198,2.99788 2.09852,-1.64883 11.61679,-0.22485 -1.94862,-5.32124 1.57388,-1.64883 8.09428,-0.89936 0.1499,-6.97008 13.94015,0.44968 5.39618,-3.82229 8.99365,1.72378 4.64671,-5.54608 17.46266,-1.57389 -1.72378,7.34481 14.61467,14.53972 8.24418,8.39407 6.07071,-1.64883 34.85037,29.97881 7.19491,-0.97431 8.46902,7.79449 -0.52463,4.34693 7.19491,8.69385 25.85673,8.61891 5.39619,-7.41975 11.61679,9.59322 -0.1499,5.32124 6.3705,1.57388 8.69386,-7.34481 4.57176,6.89513 0.22485,5.24629 9.21848,0.22484 2.47325,-8.6189 6.22061,-3.67241 18.58686,2.02357 28.40493,-1.87367 -1.94863,-15.73888 -8.99364,-1.19915 -1.42399,-8.16923 2.02357,-0.22484 5.24629,3.89724 4.19703,-6.82018 15.96372,16.5633 1.42399,-3.89725 10.94227,1.49894 5.32124,-11.39195 -0.44968,-3.97219 -5.39619,-1.19915 1.64884,-8.01933 44.59348,14.91446 19.03655,14.61467 3.14777,5.47113 11.39195,3.14778 6.9701,8.6189 9.2185,4.04714 8.8437,-1.72378 10.5675,8.24418 8.9937,5.47113 5.2463,0.44968 5.9208,3.89725 4.4219,-2.02357 10.0429,7.41975 4.2907,9.65308 6.0415,4.55761 4.4516,6.35947 7.8434,2.3318 0.212,9.22123 1.2719,15.79268 5.5115,3.17973 3.8157,0 -2.9678,3.28572 0,7.41938 8.9033,3.23273 -0.424,4.92859 -7.5254,4.92858 -14.3088,-0.31797 -16.9055,19.1314 -11.3411,15.68668 -10.4931,14.62678 -23.1591,8.00232 -14.8917,18.91942 4.5888,4.42598 7.3448,10.79237 -2.3983,7.34481 1.4989,8.99364 -9.7431,11.54185 -10.9422,-0.59958 -9.74315,4.9465 -8.09428,9.29344 4.19704,11.69173 -4.19704,20.2357 -4.34692,2.09852 0.14989,8.09428 -5.39619,2.99788 -1.49894,5.84587 -3.59745,8.09428 4.04713,11.09216 4.94651,3.29767 -4.04714,12.741 -17.08882,15.95258 2.64978,6.14748 3.92167,-1.90784 5.72352,10.49312 7.10141,22.57611 -2.54379,7.94933 11.02307,6.35947 14.5208,13.88483 -11.97701,9.64519 -2.11982,13.77885 -27.98165,23.21205 -14.3088,-8.58528 3.92167,-11.02307 -12.40096,-18.23048 -9.75119,11.34105 -8.16131,-4.23964 -25.22589,15.36871 -13.68457,80.64088 c 0,0 10.04291,19.93591 16.26351,18.9616 l -3.44756,12.741 -8.01934,6.52039 -0.74947,15.66393 -8.09428,10.64248 -0.89936,-0.22484 -3.8223,-15.88877 6.14566,-6.44545 -6.14566,-1.42399 2.69809,-8.31912 -10.34269,-0.22484 -1.19915,17.76244 -9.59322,1.79873 -2.17346,20.46054 -12.741,-3.44756 11.16711,-28.32998 -7.11997,-8.24417 4.49682,-28.85461 -21.3599,-15.51404 -6.29555,10.49259 -22.70895,10.11785 -9.74312,-5.32124 -5.99576,9.06859 8.9187,7.56965 -25.40705,11.39195 -7.04502,1.94862 -3.07283,-16.4134 -6.74523,8.31912 -3.37262,-5.77092 -9.21848,16.78814 -5.84587,-0.74947 14.53972,-33.95101 -3.6724,-13.19068 -14.31489,-8.84375 -7.79449,5.47113 4.04714,4.79661 -15.88877,19.03655 c 0,0 -1.19915,-34.32574 -31.17796,-9.74311 0,0 -9.96796,-11.16711 -17.98729,0.44968 0,0 9.94454,-25.1561 -6.80206,-24.73213 l -4.02766,-2.96775 -0.63595,-4.45163 2.54379,-1.48388 2.96775,-3.17973 -1.05991,-9.5392 -2.11982,-2.3318 -5.51154,1.48387 -9.32722,-2.54378 -1.90784,-1.48388 c 0,0 -26.07381,-33.28121 -43.45635,-14.41479 0,0 -25.43787,-38.1568 -36.88491,-4.23965 l -64.65458,-28.19363 -14.20281,4.45162 -7.63136,-6.14748 3.81568,-9.32722 -7.63136,-5.51154 -0.84793,-15.89866 c 0,0 -35.82499,-32.85725 -101.53948,17.59452 0,0 -28.62562,-75.6207 -94.75606,-107.263 z"
       id="path4184"
       inkscape:connector-curvature="0"
       sodipodi:nodetypes="cccccccccccccccccccccccccccccccccccccccccccccccccccccccccccccccccccccccccccccccccccccccccccccccccccccccccccccccccccccccccccccccccccccccccccccccccccccccccccccccccccccccccccccccccccccccccccccccccccccccccccccccccccccccccccccccccccccccccccccccccccccccccccccccccccccccc" />
    <path
       style="display:inline;fill:url(#linearGradient4207);fill-opacity:1;fill-rule:evenodd;stroke:none;stroke-width:1px;stroke-linecap:butt;stroke-linejoin:miter;stroke-opacity:1"
       d="m 264.11122,677.93838 4.87559,-6.57145 10.38713,-28.6176 3.39172,-13.56686 0,-5.08758 c 0,0 -10.38713,-9.11523 -5.29956,-26.28579 l -5.19356,-3.39172 1.37788,-6.99541 9.96317,-1.58987 7.41937,-6.88942 0.63595,-4.55762 4.55762,-1.58987 -2.33181,-3.17973 4.8756,-5.72352 5.29955,-1.80185 4.45163,0.95392 7.52537,1.27189 5.51154,-4.55761 -1.05992,-3.70969 8.58528,-14.09682 3.28573,-0.31797 6.04149,-4.7696 -0.52995,-7.94934 -2.96775,-9.85717 6.25347,-2.86176 10.28114,-8.90325 -1.48388,-11.55303 -4.13365,1.05991 -3.39172,-2.01383 -0.74193,-5.93551 5.72352,-7.52537 -1.05991,-5.51153 c 0,0 -8.90326,-4.02767 -9.75119,-13.03691 l -6.04149,-0.84793 3.97467,-5.9885 2.01383,0.15899 2.11982,-4.61061 -8.05532,-10.91709 1.85484,-3.39171 -0.52996,-7.04841 3.92168,-6.25348 -9.69819,-7.1544 -11.28805,-28.14064 7.0484,-14.89175 7.52537,-16.21664 6.88943,-0.21198 3.39171,-5.45855 11.18206,-3.39171 -0.31797,-4.23965 4.87559,-3.02074 6.09449,0.31797 -0.42396,-9.32722 3.92167,-9.91017 3.86867,3.17974 1.1659,3.4977 4.66361,0.52996 10.22815,11.71202 5.19356,-3.86868 12.93092,-0.053 8.58528,6.99541 0.21198,5.45854 6.20048,0.42397 3.70969,-6.51846 4.18665,4.02767 -1.05991,5.14056 5.29955,2.22582 8.3203,-2.06683 3.28573,0.95392 3.70969,-3.92167 c 0,0 32.53927,1.2189 16.6406,-27.71668 l 4.1575,-5.70306 2.6981,0.52463 0.67452,4.94651 8.01933,-0.89937 5.92082,10.26775 11.24205,2.24841 9.81806,7.11997 16.5633,4.27198 2.47325,-10.41764 8.69386,-1.12421 5.92081,-6.59534 11.61679,-2.77304 5.99576,-5.92081 2.77304,-8.9187 12.44121,2.24841 4.49682,-4.49682 16.18856,1.64884 2.77304,-8.01934 14.16499,0.97431 0.82442,9.74312 4.27198,2.99788 2.09852,-1.64883 11.61679,-0.22485 -1.94862,-5.32124 1.57388,-1.64883 8.09428,-0.89936 0.1499,-6.97008 13.94015,0.44968 5.39618,-3.82229 8.99365,1.72378 4.64671,-5.54608 17.46266,-1.57389 -1.72378,7.34481 14.61467,14.53972 8.24418,8.39407 6.07071,-1.64883 34.85037,29.97881 7.19491,-0.97431 8.46902,7.79449 -0.52463,4.34693 7.19491,8.69385 25.85673,8.61891 5.39619,-7.41975 11.61679,9.59322 -0.1499,5.32124 6.3705,1.57388 8.69386,-7.34481 4.57176,6.89513 0.22485,5.24629 9.21848,0.22484 2.47325,-8.6189 6.22061,-3.67241 18.58686,2.02357 28.40493,-1.87367 -1.94863,-15.73888 -8.99364,-1.19915 -1.42399,-8.16923 2.02357,-0.22484 5.24629,3.89724 4.19703,-6.82018 15.96372,16.5633 1.42399,-3.89725 10.94227,1.49894 5.32124,-11.39195 -0.44968,-3.97219 -5.39619,-1.19915 1.64884,-8.01933 44.59348,14.91446 19.03655,14.61467 3.14777,5.47113 11.39199,3.14778 6.9701,8.6189 9.2185,4.04714 8.8437,-1.72378 10.5675,8.24418 8.9937,5.47113 5.2463,0.44968 5.9208,3.89725 4.4219,-2.02357 10.0429,7.41975 4.2907,9.65308 6.0415,4.55761 4.4516,6.35947 7.8434,2.3318 0.212,9.22123 1.2719,15.79268 5.5115,3.17973 3.8157,0 -2.9678,3.28572 0,7.41938 8.9033,3.23273 -0.424,4.92859 -7.5254,4.92858 -14.3088,-0.31797 -16.9055,19.1314 -11.3411,15.68668 -10.4931,14.62678 -23.1591,8.00232 -14.8917,18.91942 4.5888,4.42598 7.3448,10.79237 -2.3983,7.34481 1.4989,8.99364 -9.7431,11.54185 -10.9422,-0.59958 -9.74319,4.9465 -8.09428,9.29344 4.19704,11.69173 -4.19704,20.2357 -4.34692,2.09852 0.14989,8.09428 -5.39619,2.99788 -1.49894,5.84587 -3.59745,8.09428 4.04713,11.09216 4.94651,3.29767 -4.04714,12.741 -17.08882,15.95258 2.64978,6.14748 3.92167,-1.90784 5.72352,10.49312 7.10141,22.57611 -2.54379,7.94933 11.02307,6.35947 14.52084,13.88483 -11.97705,9.64519 -2.11982,13.77885 -27.98165,23.21205 -14.3088,-8.58528 3.92167,-11.02307 -12.40096,-18.23048 -9.75119,11.34105 -8.16131,-4.23964 -25.22589,15.36871 -13.68457,80.64088 c 0,0 10.04291,19.93591 16.26351,18.9616 l -3.44756,12.741 -8.01934,6.52039 -0.74947,15.66393 -8.09428,10.64248 -0.89936,-0.22484 -3.8223,-15.88877 6.14566,-6.44545 -6.14566,-1.42399 2.69809,-8.31912 -10.34269,-0.22484 -1.19915,17.76244 -9.59322,1.79873 -2.17346,20.46054 -12.741,-3.44756 11.16711,-28.32998 -7.11997,-8.24417 4.49682,-28.85461 -21.3599,-15.51404 -6.29555,10.49259 -22.70895,10.11785 -9.74312,-5.32124 -5.99576,9.06859 8.9187,7.56965 -25.40705,11.39195 -7.04502,1.94862 -3.07283,-16.4134 -6.74523,8.31912 -3.37262,-5.77092 -9.21848,16.78814 -5.84587,-0.74947 14.53972,-33.95101 -3.6724,-13.19068 -14.31489,-8.84375 -7.79449,5.47113 4.04714,4.79661 -15.88877,19.03655 c 0,0 -1.19915,-34.32574 -31.17796,-9.74311 0,0 -9.96796,-11.16711 -17.98729,0.44968 0,0 9.94454,-25.1561 -6.80206,-24.73213 l -4.02766,-2.96775 -0.63595,-4.45163 2.54379,-1.48388 2.96775,-3.17973 -1.05991,-9.5392 -2.11982,-2.3318 -5.51154,1.48387 -9.32722,-2.54378 -1.90784,-1.48388 c 0,0 -26.07381,-33.28121 -43.45635,-14.41479 0,0 -25.43787,-38.1568 -36.88491,-4.23965 l -64.65458,-28.19363 -14.20281,4.45162 -7.63136,-6.14748 3.81568,-9.32722 -7.63136,-5.51154 -0.84793,-15.89866 c 0,0 -35.82499,-32.85725 -101.53948,17.59452 0,0 -28.62562,-75.6207 -94.75606,-107.263 z"
       id="path4184-6"
       inkscape:connector-curvature="0"
       sodipodi:nodetypes="cccccccccccccccccccccccccccccccccccccccccccccccccccccccccccccccccccccccccccccccccccccccccccccccccccccccccccccccccccccccccccccccccccccccccccccccccccccccccccccccccccccccccccccccccccccccccccccccccccccccccccccccccccccccccccccccccccccccccccccccccccccccccccccccccccccccc" />
    <flowRoot
       xml:space="preserve"
       id="flowRoot4144"
       style="font-style:normal;font-weight:normal;font-size:120.68548584px;line-height:125%;font-family:sans-serif;letter-spacing:0px;word-spacing:0px;fill:#000000;fill-opacity:1;stroke:none;stroke-width:2;stroke-linecap:butt;stroke-linejoin:miter;stroke-miterlimit:4;stroke-dasharray:none;stroke-opacity:1"
       transform="translate(-72.921884,55.963307)"><flowRegion
         id="flowRegion4146"><rect
           id="rect4148"
           width="546.31915"
           height="712.7475"
           x="605.77545"
           y="410.09021"
           style="stroke-width:2;stroke-miterlimit:4;stroke-dasharray:none" /></flowRegion><flowPara
         id="flowPara4150"
         style="font-style:normal;font-variant:normal;font-weight:normal;font-stretch:normal;font-family:BROMO;-inkscape-font-specification:BROMO;fill:#ffff00;fill-opacity:1;stroke:#000000;stroke-width:2;stroke-miterlimit:4;stroke-dasharray:none;stroke-opacity:1">Jember</flowPara></flowRoot>    <flowRoot
       transform="translate(-29.422616,144.88534)"
       xml:space="preserve"
       id="flowRoot4144-3"
       style="font-style:normal;font-weight:normal;font-size:120.68548584px;line-height:125%;font-family:sans-serif;letter-spacing:0px;word-spacing:0px;display:inline;fill:#000000;fill-opacity:1;stroke:none;stroke-width:1.79999995;stroke-linecap:butt;stroke-linejoin:miter;stroke-miterlimit:4;stroke-dasharray:none;stroke-opacity:1"><flowRegion
         id="flowRegion4146-7"><rect
           id="rect4148-8"
           width="546.31915"
           height="712.7475"
           x="605.77545"
           y="410.09021"
           style="stroke-width:1.79999995;stroke-miterlimit:4;stroke-dasharray:none" /></flowRegion><flowPara
         id="flowPara4150-7"
         style="font-style:normal;font-variant:normal;font-weight:normal;font-stretch:normal;font-family:BROMO;-inkscape-font-specification:BROMO;fill:#ffff00;fill-opacity:1;stroke:#000000;stroke-width:1.79999995;stroke-miterlimit:4;stroke-dasharray:none;stroke-opacity:1">City</flowPara></flowRoot>    <flowRoot
       xml:space="preserve"
       id="flowRoot4144-0"
       style="font-style:normal;font-weight:normal;font-size:120.68548584px;line-height:125%;font-family:sans-serif;letter-spacing:0px;word-spacing:0px;display:inline;fill:#000000;fill-opacity:1;stroke:none;stroke-width:2;stroke-linecap:butt;stroke-linejoin:miter;stroke-miterlimit:4;stroke-dasharray:none;stroke-opacity:1"
       transform="matrix(0.32794951,0,0,0.32794951,-35.616019,383.86464)"><flowRegion
         id="flowRegion4146-9"><rect
           id="rect4148-88"
           width="546.31915"
           height="712.7475"
           x="605.77545"
           y="410.09021"
           style="stroke-width:2;stroke-miterlimit:4;stroke-dasharray:none" /></flowRegion><flowPara
         id="flowPara4150-5"
         style="font-style:normal;font-variant:normal;font-weight:200;font-stretch:normal;font-family:Oswald;-inkscape-font-specification:'Oswald Ultra-Light';fill:#000000;fill-opacity:1;stroke:none;stroke-width:2;stroke-miterlimit:4;stroke-dasharray:none;stroke-opacity:1">lumajang</flowPara></flowRoot>    <flowRoot
       xml:space="preserve"
       id="flowRoot4144-0-3"
       style="font-style:normal;font-weight:normal;font-size:120.68548584px;line-height:125%;font-family:sans-serif;letter-spacing:0px;word-spacing:0px;display:inline;fill:#000000;fill-opacity:1;stroke:none;stroke-width:2;stroke-linecap:butt;stroke-linejoin:miter;stroke-miterlimit:4;stroke-dasharray:none;stroke-opacity:1"
       transform="matrix(0.32794951,0,0,0.32794951,76.799818,-13.230351)"><flowRegion
         id="flowRegion4146-9-7"><rect
           id="rect4148-88-0"
           width="546.31915"
           height="712.7475"
           x="605.77545"
           y="410.09021"
           style="stroke-width:2;stroke-miterlimit:4;stroke-dasharray:none" /></flowRegion><flowPara
         id="flowPara4150-5-6"
         style="font-style:normal;font-variant:normal;font-weight:200;font-stretch:normal;font-family:Oswald;-inkscape-font-specification:'Oswald Ultra-Light';fill:#000000;fill-opacity:1;stroke:none;stroke-width:2;stroke-miterlimit:4;stroke-dasharray:none;stroke-opacity:1">probolinggo</flowPara></flowRoot>    <flowRoot
       xml:space="preserve"
       id="flowRoot4144-0-3-9"
       style="font-style:normal;font-weight:normal;font-size:39.5787468px;line-height:125%;font-family:sans-serif;letter-spacing:0px;word-spacing:0px;display:inline;fill:#000000;fill-opacity:1;stroke:none;stroke-width:2;stroke-linecap:butt;stroke-linejoin:miter;stroke-miterlimit:4;stroke-dasharray:none;stroke-opacity:1"
       transform="matrix(0.82861462,0,0,0.82861462,887.75853,217.67916)"><flowRegion
         id="flowRegion4146-9-7-2"><rect
           id="rect4148-88-0-1"
           width="179.1651"
           height="233.74519"
           x="-2.2610705"
           y="-7.6827245"
           style="stroke-width:2;stroke-miterlimit:4;stroke-dasharray:none" /></flowRegion><flowPara
         style="font-style:normal;font-variant:normal;font-weight:200;font-stretch:normal;font-family:Oswald;-inkscape-font-specification:'Oswald Ultra-Light';fill:#000000;fill-opacity:1;stroke:none;stroke-width:2;stroke-miterlimit:4;stroke-dasharray:none;stroke-opacity:1"
         id="flowPara4252">bondowoso</flowPara></flowRoot>    <flowRoot
       xml:space="preserve"
       id="flowRoot4144-0-3-9-7"
       style="font-style:normal;font-weight:normal;font-size:39.5787468px;line-height:125%;font-family:sans-serif;letter-spacing:0px;word-spacing:0px;display:inline;fill:#000000;fill-opacity:1;stroke:none;stroke-width:2;stroke-linecap:butt;stroke-linejoin:miter;stroke-miterlimit:4;stroke-dasharray:none;stroke-opacity:1"
       transform="matrix(0.75891178,0,0,0.75891178,1012.3591,753.79402)"><flowRegion
         id="flowRegion4146-9-7-2-9"><rect
           id="rect4148-88-0-1-7"
           width="179.1651"
           height="233.74519"
           x="-2.2610705"
           y="-7.6827245"
           style="stroke-width:2;stroke-miterlimit:4;stroke-dasharray:none" /></flowRegion><flowPara
         style="font-style:normal;font-variant:normal;font-weight:200;font-stretch:normal;font-family:Oswald;-inkscape-font-specification:'Oswald Ultra-Light';fill:#000000;fill-opacity:1;stroke:none;stroke-width:2;stroke-miterlimit:4;stroke-dasharray:none;stroke-opacity:1"
         id="flowPara4252-6">banyuwangi</flowPara></flowRoot>  </g>
  <g
     inkscape:groupmode="layer"
     id="layer1"
     inkscape:label="garis"
     style="display:inline"
     transform="translate(-151.38937,-78.035324)">
    <path
       style="fill:none;fill-rule:evenodd;stroke:#000000;stroke-width:1px;stroke-linecap:butt;stroke-linejoin:miter;stroke-opacity:1"
       d="m 153.47513,645.28881 c 0,0 156.86685,5.08758 206.89465,139.90827 0,0 60.20295,-50.45177 100.90354,-18.23047 l 1.27189,16.11065 7.2074,5.08757 -3.81568,9.32722 7.63136,5.51154 14.41479,-3.39172 64.4426,27.98166 c 0,0 8.90325,-34.34112 37.30887,4.23964 0,0 13.1429,-21.19822 43.66834,14.41479 0,0 8.90325,6.35947 16.53461,2.11982 0,0 7.20739,11.02308 -0.84793,15.26272 0,0 -4.66361,5.08758 2.54379,8.90326 0,0 16.95857,-2.11982 6.78343,25.0139 0,0 11.02307,-12.29497 18.23047,-0.84793 0,0 27.55769,-25.0139 31.37337,9.75118 l 16.11065,-18.65443 -4.23965,-5.08758 8.05533,-5.51153 14.41479,8.90325 3.39171,13.1429 -14.83875,33.91715 6.35947,0.42397 8.90325,-16.11065 3.39171,5.51154 6.78344,-8.47929 2.96775,16.53461 7.20739,-2.11982 25.43787,-11.44704 -8.90325,-7.2074 5.9355,-9.32721 9.75118,5.51153 22.89408,-10.17514 5.9355,-10.17515 21.62219,15.26272 -4.66361,28.82958 7.2074,8.05533 -11.44704,28.40562 12.71893,3.81568 2.54379,-20.77426 9.32721,-1.69586 1.2719,-17.80651 10.59911,0.42397 -2.96775,8.05532 6.78343,1.2719 -6.78343,6.78343 3.81568,15.68668 18.65443,-3.81568 4.66361,11.02308 12.71894,1.27189 6.78343,-6.35947 28.82958,16.95858 0.84793,5.08757 11.871,5.51154 15.26272,-6.35946 1.69586,-16.11065 6.78343,0.42396 3.39172,7.2074 5.08757,-1.2719 -2.54379,-8.05532 9.32726,-2.54379 c 0,0 39.4287,18.23047 24.1659,44.94023 l -7.9493,2.8618 -6.3595,-5.4056 -7.8433,6.7834 13.2489,10.2812 -2.5438,4.2396 8.1613,5.1936 3.6037,-3.3917 4.8756,-1.0599 2.5438,-7.6314 5.8295,0.424 0.9539,3.2857 7.4194,-6.2535 4.1336,2.2258 0,-7.9493 5.8296,0.212 0.6359,6.6774 1.2719,3.0738 -5.7235,7.3134 3.2857,4.3456 4.4516,-0.106 0.106,-3.6037 -3.6037,-1.1659 5.6176,-8.3733 -2.3319,-2.3318 3.1798,-2.1198 c 0,0 -5.0871,-35.74167 33.2858,-3.9641 l 5.9957,38.9724 30.5784,2.3983 2.3983,-11.3919 20.9852,-1.1992 5.3962,13.1907 2.3983,-18.5869 5.3962,-4.197 28.7796,2.3983 0,-956.324133 -1045.66097,0 z"
       id="path4158"
       inkscape:connector-curvature="0" />
    <path
       style="display:inline;fill:none;fill-rule:evenodd;stroke:#000000;stroke-width:1px;stroke-linecap:butt;stroke-linejoin:miter;stroke-opacity:1"
       d="m 264.97778,677.08615 5.29956,-6.57145 c 0,0 15.4747,-35.18905 13.35488,-47.696 0,0 -9.11524,-8.69127 -5.08758,-25.43787 l -5.08757,-3.81568 1.27189,-6.99541 9.5392,-1.69586 7.41938,-6.78343 1.05991,-4.45163 4.66361,-1.69586 -2.11982,-3.17973 4.02766,-5.29956 6.14748,-2.3318 4.66361,1.27189 7.2074,0.84793 5.08757,-4.23964 -0.63594,-3.81568 8.47929,-13.99083 2.96775,0 5.9355,-5.08757 0,-7.63136 -3.39172,-10.17515 6.57145,-3.17973 10.17515,-8.47929 -1.05991,-11.65902 -4.23965,0.84793 -3.81568,-1.69586 -0.63594,-5.72352 5.9355,-7.63136 -1.27189,-5.9355 c 0,0 -8.47929,-2.75577 -9.5392,-12.71894 l -6.57145,-0.84793 4.23964,-5.9355 1.90784,0 2.33181,-4.66361 -7.84335,-10.81109 1.69586,-3.6037 -0.42396,-6.78343 3.81568,-6.35947 -9.75119,-7.20739 -11.44704,-27.98166 14.83876,-31.37337 6.78343,-0.21198 1.69586,-2.54378 1.69586,-2.75577 11.23505,-3.39172 -0.21198,-4.02766 4.87559,-3.17973 5.93551,0.63594 -0.42397,-9.75118 4.02766,-10.17515 3.6037,3.6037 1.05991,3.17973 4.66361,0.63595 3.6037,4.45163 6.78343,7.20739 5.29956,-3.60369 13.14289,-0.21199 8.47929,7.2074 0.21198,5.08757 5.93551,0.63595 4.02766,-6.57145 3.81568,4.02766 -0.84793,5.08758 5.08757,2.11982 8.26731,-2.11982 3.6037,1.27189 3.39171,-4.02766 c 0,0 33.91716,3.60369 16.7466,-27.76967 l 4.48833,-5.55318 2.39831,0.59957 0.89936,4.64672 7.6446,-0.59958 5.99576,9.89301 11.24206,2.5482 9.89301,7.49471 16.93803,3.74735 1.94862,-10.49259 8.84375,-1.04926 5.69597,-6.74523 11.69174,-2.69809 6.29555,-5.99576 2.84799,-8.39407 12.14142,1.64883 4.34693,-3.89724 16.78813,1.49894 2.39831,-7.79449 14.23993,0.74947 0.74947,9.74311 4.19704,2.99788 2.09851,-1.64883 11.69174,-0.44969 -1.94862,-5.39618 1.34905,-1.34905 8.24417,-1.04926 0.29979,-7.04502 14.23993,0.44968 4.79661,-3.74735 9.44333,1.64884 4.49682,-5.54608 17.8374,-1.49894 -2.09852,7.4947 22.7839,22.634 6.29555,-1.34904 34.77542,30.1287 7.19492,-1.19915 8.39407,7.79449 -0.59958,4.34693 7.34481,8.54396 25.63188,8.84375 5.54609,-7.64459 11.39194,9.44332 0.1499,5.39619 5.99576,1.49894 8.84375,-7.19492 4.79661,7.04503 0,5.09639 9.14354,0.44969 2.3983,-8.84375 6.44545,-3.89725 18.58686,2.39831 28.32998,-1.94863 -1.64883,-15.73887 -8.69386,-1.04926 -1.94862,-8.24418 2.09852,-0.29978 5.09639,4.04713 4.34693,-6.44544 15.88877,16.33845 1.49894,-4.19703 10.94227,1.49894 5.39619,-11.24205 -0.29979,-4.04714 -5.24629,-1.64884 1.19915,-7.94439 22.634,7.6446 22.03443,7.6446 18.88665,14.68962 3.29767,5.24629 10.94225,2.99788 7.4947,8.54396 8.8438,4.19704 9.2934,-1.79873 4.4968,3.74735 7.1949,5.84587 7.4947,4.04714 5.5461,0.44968 5.5461,3.89725 4.6467,-1.64884 10.0429,7.34481 4.7966,10.1928 5.3962,4.04714 4.7966,6.29555 7.6446,2.3983 0.7495,16.63825 0.7495,8.24417 5.8458,3.44756 4.0472,-0.14989 -3.5975,2.99788 0,7.4947 8.9937,3.14778 -0.4497,5.24629 -7.3448,4.64672 -14.3899,-0.29979 -16.6382,19.18644 -22.1843,30.2786 -22.9338,8.09428 -15.1393,18.88665 4.7966,4.94651 7.1949,10.1928 -2.2484,7.3448 1.4989,8.84375 -9.893,11.99153 -10.4925,-0.59958 -10.04295,4.64672 -8.24418,9.74311 4.04714,11.39195 -3.89724,20.2357 -4.34693,2.24841 -0.29979,8.24418 -5.39618,2.84799 -1.04926,5.84586 c 0,0 -3.29767,7.04502 -3.44757,7.94439 -0.14989,0.89936 3.59746,10.64248 3.59746,10.64248 l 5.0964,3.89724 -4.04714,12.44121 -17.08792,16.63824 2.3983,5.84587 4.34693,-2.3983 5.54608,10.79237 6.89513,22.634 -2.5482,7.49471 10.94226,7.19491 14.68966,13.64036 -11.84167,9.44333 -2.09852,13.79025 -27.5805,23.38348 -14.38984,-9.29343 3.59746,-10.79238 -12.5911,-18.28707 -9.59322,11.69173 -7.79449,-4.49682 -25.1822,15.88877 -14.09005,80.64301 c 0,0 5.99577,14.38983 16.18856,18.58687 l -3.29767,13.19067 -8.09428,6.29556 -0.89936,15.58898 -8.09428,10.49258"
       id="path4162"
       inkscape:connector-curvature="0" />
  </g>
</svg>
