<?xml version="1.0" encoding="UTF-8" standalone="no"?>
<!-- Created with Inkscape (http://www.inkscape.org/) -->

<svg
   xmlns:dc="http://purl.org/dc/elements/1.1/"
   xmlns:cc="http://creativecommons.org/ns#"
   xmlns:rdf="http://www.w3.org/1999/02/22-rdf-syntax-ns#"
   xmlns:svg="http://www.w3.org/2000/svg"
   xmlns="http://www.w3.org/2000/svg"
   xmlns:sodipodi="http://sodipodi.sourceforge.net/DTD/sodipodi-0.dtd"
   xmlns:inkscape="http://www.inkscape.org/namespaces/inkscape"
   id="svg2"
   version="1.1"
   inkscape:version="0.91 r13725"
   xml:space="preserve"
   width="80"
   height="80"
   viewBox="0 0 80 80"
   sodipodi:docname="watercan.svg"
   enable-background="new"
   inkscape:export-filename="/home/dallasarivle/Documents/plantown/aset/watercanOrLiquidFertilizer.png"
   inkscape:export-xdpi="90"
   inkscape:export-ydpi="90"><metadata
     id="metadata8"><rdf:RDF><cc:Work
         rdf:about=""><dc:format>image/svg+xml</dc:format><dc:type
           rdf:resource="http://purl.org/dc/dcmitype/StillImage" /><dc:title></dc:title></cc:Work></rdf:RDF></metadata><defs
     id="defs6"><filter
       inkscape:collect="always"
       style="color-interpolation-filters:sRGB"
       id="filter4288"><feBlend
         inkscape:collect="always"
         mode="multiply"
         in2="BackgroundImage"
         id="feBlend4290" /></filter></defs><sodipodi:namedview
     pagecolor="#ffffff"
     bordercolor="#666666"
     borderopacity="1"
     objecttolerance="10"
     gridtolerance="10"
     guidetolerance="10"
     inkscape:pageopacity="0"
     inkscape:pageshadow="2"
     inkscape:window-width="1366"
     inkscape:window-height="695"
     id="namedview4"
     showgrid="false"
     inkscape:zoom="2.1529829"
     inkscape:cx="-1.7752091"
     inkscape:cy="47.164352"
     inkscape:window-x="0"
     inkscape:window-y="27"
     inkscape:window-maximized="1"
     inkscape:current-layer="layer3" /><g
     inkscape:groupmode="layer"
     id="layer2"
     inkscape:label="warna"
     style="display:inline"><path
       transform="matrix(1.25,0,0,-1.25,0,80)"
       inkscape:connector-curvature="0"
       id="path46-3"
       style="fill:#ff0000;fill-opacity:1;fill-rule:nonzero;stroke:none;stroke-width:1;stroke-opacity:1"
       d="m 53.017524,24.505398 c -0.0069,1.97032 0.0061,3.967856 0.01946,5.917074 0.02919,4.390574 0.05968,8.929999 -0.141163,13.182584 -0.03163,0.663245 -0.578315,1.184596 -1.242293,1.184596 l -8.703505,0 c -0.01256,0.281458 -0.07553,0.595305 -0.250258,1.022665 -0.191474,0.467972 -0.64614,0.773272 -1.151157,0.773272 0,0 -0.004,0 -0.004,0 l -0.03649,0 c -1.489916,0 -5.341172,0.27798 -6.625585,0.547833 1.818213,1.58463 5.000344,3.527631 9.670038,3.527631 0.48276,0 0.97606,-0.02186 1.465752,-0.06478 7.162875,-0.630434 12.975091,-7.137855 12.956402,-14.506644 -0.015,-5.827407 -2.938116,-9.423604 -5.957676,-11.584235 z m 5.710823,23.637919 c -3.111548,3.618885 -7.489997,5.807468 -12.328179,6.163518 -0.456571,0.03353 -0.917885,0.05063 -1.370158,0.05063 -3.301118,0 -6.40022,-0.871385 -9.211563,-2.589468 -2.435733,-1.488735 -4.522329,-3.551784 -6.033852,-5.965816 L 29.661473,45.606072 C 29.059644,44.649981 28.623627,43.922803 28.493775,43.267685 28.1433,41.499809 27.965772,36.76501 27.965772,34.186829 l 0,-0.04062 c 0,-1.653624 -1.89804,-2.587145 -3.208401,-1.578303 C 18.54141,37.353348 7.7874302,46.376919 4.2116878,49.127897 3.8019822,49.442904 3.225289,49.418003 2.8442866,49.068608 1.6337782,47.958912 0.31648548,45.900822 0.37008038,43.564012 c 0.051649,-2.248191 0.80019462,-4.190448 2.00259492,-5.19528 0.1312711,-0.109617 0.2871505,-0.18599 0.4541381,-0.222595 0.3422456,-0.07532 0.7366672,-0.111612 1.20613,-0.111612 0.5870715,0 1.2069812,0.05465 1.8631764,0.112665 0.6363692,0.05623 1.2944279,0.114673 1.8902562,0.114673 0.4516248,0 0.8186408,-0.03312 1.11994,-0.100542 1.171915,-0.501839 11.486755,-8.769754 16.8619,-14.144902 0.264488,-0.264371 0.57126,-0.538865 0.895952,-0.828553 0.0044,-0.0043 0.0089,-0.0082 0.01379,-0.01244 0.987816,-0.882459 1.519956,-2.166431 1.448724,-3.489436 -0.01212,-0.227341 -0.03973,-3.470704 -0.04407,-5.941667 -0.004,-1.36706 1.105549,-2.476768 2.472666,-2.476768 l 19.996475,0 c 1.365496,0 2.472908,1.107352 2.472908,2.472892 l 0,6.208328 c 2.583951,1.374909 4.82602,3.228233 6.514383,5.3895 2.129407,2.725973 3.342793,5.844178 3.60643,9.267684 0.377436,4.900218 -1.232196,9.834294 -4.417083,13.537357" /><path
       transform="matrix(1.25,0,0,-1.25,0,80)"
       style="fill:#eeb893;fill-opacity:1;fill-rule:evenodd;stroke:none;stroke-width:0.80000001px;stroke-linecap:butt;stroke-linejoin:miter;stroke-opacity:1"
       d="m 3.6784296,49.658798 c 0,0 4.335292,-5.583329 1.1166661,-11.16666 l -2.430391,0.197059 -2.10195973,4.335292 0.65686242,3.744116 1.64215611,2.627449 z"
       id="path4186"
       inkscape:connector-curvature="0"
       sodipodi:nodetypes="ccccccc" /><path
       transform="matrix(1.25,0,0,-1.25,0,80)"
       style="fill:#a10000;fill-opacity:1;fill-rule:evenodd;stroke:none;stroke-width:0.80000001px;stroke-linecap:butt;stroke-linejoin:miter;stroke-opacity:1"
       d="m 32.662484,42.498999 c 0,0 14.565924,-0.919607 18.769843,1.543627 0,0 -13.137248,1.379411 -18.917637,-0.394118 z"
       id="path4184"
       inkscape:connector-curvature="0"
       sodipodi:nodetypes="cccc" /></g><g
     inkscape:groupmode="layer"
     id="layer3"
     inkscape:label="bayangan"
     style="filter:url(#filter4288);opacity:0.436"><path
       style="fill:#620000;fill-opacity:1;fill-rule:evenodd;stroke:none;stroke-width:1px;stroke-linecap:butt;stroke-linejoin:miter;stroke-opacity:1"
       d="m 2.0320644,30.243451 c 0,0 2.9319788,0.812825 5.1672494,-1.538563 l 4.2545322,1.207923 c 0,0 18.287268,14.320404 25.587786,20.360989 1.139895,0.94317 -0.43678,11.207934 1.799829,12.482682 4.831371,2.753625 15.677131,0.836583 24.210596,0.522531 3.064505,-0.112781 1.871201,-5.654007 1.625652,-8.650789 -0.08192,-0.999815 6.212311,-5.225309 6.212311,-5.225309 0,0 7.547668,-10.624794 7.663786,-12.366564 l -0.30507,2.443448 -1.806371,4.721199 -3.448528,5.419115 -5.008576,3.859067 -1.806372,1.231617 0.04105,5.460169 -0.533701,3.941174 -1.888479,1.231617 -25.946066,0.164216 -2.545342,-2.011641 -0.451593,-10.879284 -11.946685,-11.536147 -11.659308,-9.237127 -4.146444,0 -4.3927675,0.04105 z"
       id="path4286"
       inkscape:connector-curvature="0"
       sodipodi:nodetypes="cccsssscccccccccccccccccc" /></g><g
     inkscape:groupmode="layer"
     id="layer1"
     inkscape:label="garis"><path
       transform="matrix(1.25,0,0,-1.25,0,80)"
       inkscape:connector-curvature="0"
       id="path46"
       style="fill:none;fill-opacity:1;fill-rule:nonzero;stroke:#000000;stroke-opacity:1"
       d="m 53.009124,24.890723 c -0.0069,1.97032 0.0061,3.967856 0.01946,5.917074 0.02919,4.390574 0.05968,8.929999 -0.141163,13.182584 -0.03163,0.663245 -0.578315,1.184596 -1.242293,1.184596 l -8.703505,0 c -0.01256,0.281458 -0.07553,0.595305 -0.250258,1.022665 -0.191474,0.467972 -0.64614,0.773272 -1.151157,0.773272 0,0 -0.004,0 -0.004,0 l -0.03649,0 c -1.489916,0 -5.341171,0.27798 -6.625585,0.547833 1.818214,1.58463 5.000344,3.527631 9.670039,3.527631 0.48276,0 0.97606,-0.02186 1.465752,-0.06478 7.162874,-0.630434 12.97509,-7.137855 12.956401,-14.506644 -0.015,-5.827407 -2.938116,-9.423604 -5.957676,-11.584235 z m 5.710823,23.637919 c -3.111548,3.618885 -7.489997,5.807468 -12.328179,6.163518 -0.456571,0.03353 -0.917885,0.05063 -1.370158,0.05063 -3.301118,0 -6.40022,-0.871385 -9.211563,-2.589468 -2.435733,-1.488735 -4.522329,-3.551784 -6.033852,-5.965816 L 29.653073,45.991397 C 29.051244,45.035306 28.615227,44.308128 28.485375,43.65301 28.1349,41.885134 27.957372,37.150335 27.957372,34.572154 l 0,-0.04062 c 0,-1.653624 -1.89804,-2.587145 -3.208401,-1.578303 C 18.53301,37.738673 7.7790306,46.762244 4.2032882,49.513222 3.7935827,49.828229 3.2168895,49.803328 2.835887,49.453933 1.6253787,48.344237 0.30808594,46.286147 0.36168087,43.949337 0.41332967,41.701146 1.1618755,39.758889 2.3642757,38.754057 2.4955468,38.64444 2.6514263,38.568067 2.8184139,38.531462 3.1606595,38.456142 3.5550811,38.41985 4.0245438,38.41985 c 0.5870715,0 1.2069812,0.05465 1.8631765,0.112665 0.6363692,0.05623 1.2944278,0.114673 1.8902561,0.114673 0.4516249,0 0.8186408,-0.03312 1.1199402,-0.100542 1.1719144,-0.501839 11.4867544,-8.769754 16.8618994,-14.144902 0.264488,-0.264371 0.57126,-0.538865 0.895952,-0.828553 0.0044,-0.0043 0.0089,-0.0082 0.01379,-0.01244 0.987816,-0.882459 1.519956,-2.166431 1.448725,-3.489436 -0.01212,-0.227341 -0.03973,-3.470704 -0.04407,-5.941667 -0.004,-1.36706 1.105549,-2.476768 2.472666,-2.476768 l 19.996475,0 c 1.365496,0 2.472908,1.107352 2.472908,2.472892 l 0,6.208328 c 2.583951,1.374909 4.82602,3.228233 6.514383,5.3895 2.129407,2.725973 3.342793,5.844178 3.60643,9.267684 0.377435,4.900218 -1.232197,9.834294 -4.417084,13.537357" /><path
       transform="matrix(1.25,0,0,-1.25,0,80)"
       style="fill:none;fill-rule:evenodd;stroke:#000000;stroke-width:0.23999999;stroke-linecap:round;stroke-linejoin:round;stroke-miterlimit:4;stroke-dasharray:none;stroke-opacity:1"
       d="m 32.350435,42.508901 c 0,0 12.738158,-1.313724 18.703345,1.313725"
       id="path4182"
       inkscape:connector-curvature="0" /><path
       style="opacity:1;fill:#000000;fill-opacity:1;fill-rule:nonzero;stroke:none;stroke-width:0.30000001;stroke-linecap:round;stroke-linejoin:round;stroke-miterlimit:4;stroke-dasharray:none;stroke-dashoffset:0;stroke-opacity:1"
       id="path4188"
       transform="matrix(1.25,0,0,1.25,0,80)"
       sodipodi:type="arc"
       sodipodi:cx="2.4144528"
       sodipodi:cy="-47.137772"
       sodipodi:rx="0.44289872"
       sodipodi:ry="0.4454096"
       sodipodi:start="5.7542284"
       sodipodi:end="5.6674711"
       d="m 2.7968223,-47.36254 a 0.44289872,0.4454096 0 0 1 -0.150628,0.60434 0.44289872,0.4454096 0 0 1 -0.6040592,-0.138339 0.44289872,0.4454096 0 0 1 0.1244269,-0.610341 0.44289872,0.4454096 0 0 1 0.6094561,0.111866"
       sodipodi:open="true" /><path
       style="opacity:1;fill:#000000;fill-opacity:1;fill-rule:nonzero;stroke:none;stroke-width:0.30000001;stroke-linecap:round;stroke-linejoin:round;stroke-miterlimit:4;stroke-dasharray:none;stroke-dashoffset:0;stroke-opacity:1"
       id="path4188-7"
       sodipodi:type="arc"
       sodipodi:cx="4.5982714"
       sodipodi:cy="-45.216335"
       sodipodi:rx="0.44289869"
       sodipodi:ry="0.4454096"
       sodipodi:start="5.7542284"
       sodipodi:end="5.6674711"
       d="m 4.9806408,-45.441104 a 0.44289869,0.4454096 0 0 1 -0.150628,0.604341 0.44289869,0.4454096 0 0 1 -0.604059,-0.13834 0.44289869,0.4454096 0 0 1 0.1244268,-0.610341 0.44289869,0.4454096 0 0 1 0.6094561,0.111866"
       sodipodi:open="true"
       transform="matrix(1.25,0,0,1.25,0,80)" /><path
       style="opacity:1;fill:#000000;fill-opacity:1;fill-rule:nonzero;stroke:none;stroke-width:0.30000001;stroke-linecap:round;stroke-linejoin:round;stroke-miterlimit:4;stroke-dasharray:none;stroke-dashoffset:0;stroke-opacity:1"
       id="path4188-5"
       sodipodi:type="arc"
       sodipodi:cx="2.9029493"
       sodipodi:cy="-45.10022"
       sodipodi:rx="0.44289869"
       sodipodi:ry="0.4454096"
       sodipodi:start="5.7542284"
       sodipodi:end="5.6674711"
       d="m 3.2853188,-45.324988 a 0.44289869,0.4454096 0 0 1 -0.150628,0.60434 0.44289869,0.4454096 0 0 1 -0.6040591,-0.138339 0.44289869,0.4454096 0 0 1 0.1244268,-0.610341 0.44289869,0.4454096 0 0 1 0.6094561,0.111866"
       sodipodi:open="true"
       transform="matrix(1.25,0,0,1.25,0,80)" /><path
       style="opacity:1;fill:#000000;fill-opacity:1;fill-rule:nonzero;stroke:none;stroke-width:0.30000001;stroke-linecap:round;stroke-linejoin:round;stroke-miterlimit:4;stroke-dasharray:none;stroke-dashoffset:0;stroke-opacity:1"
       id="path4188-3"
       sodipodi:type="arc"
       sodipodi:cx="1.6953223"
       sodipodi:cy="-45.587917"
       sodipodi:rx="0.44289869"
       sodipodi:ry="0.4454096"
       sodipodi:start="5.7542284"
       sodipodi:end="5.6674711"
       d="m 2.0776917,-45.812686 a 0.44289869,0.4454096 0 0 1 -0.150628,0.604341 0.44289869,0.4454096 0 0 1 -0.604059,-0.13834 0.44289869,0.4454096 0 0 1 0.1244268,-0.610341 0.44289869,0.4454096 0 0 1 0.6094561,0.111866"
       sodipodi:open="true"
       transform="matrix(1.25,0,0,1.25,0,80)" /><path
       style="opacity:1;fill:#000000;fill-opacity:1;fill-rule:nonzero;stroke:none;stroke-width:0.30000001;stroke-linecap:round;stroke-linejoin:round;stroke-miterlimit:4;stroke-dasharray:none;stroke-dashoffset:0;stroke-opacity:1"
       id="path4188-56"
       sodipodi:type="arc"
       sodipodi:cx="1.6488751"
       sodipodi:cy="-43.567463"
       sodipodi:rx="0.44289869"
       sodipodi:ry="0.4454096"
       sodipodi:start="5.7542284"
       sodipodi:end="5.6674711"
       d="m 2.0312446,-43.792231 a 0.44289869,0.4454096 0 0 1 -0.150628,0.60434 0.44289869,0.4454096 0 0 1 -0.6040591,-0.138339 0.44289869,0.4454096 0 0 1 0.1244268,-0.610341 0.44289869,0.4454096 0 0 1 0.6094561,0.111865"
       sodipodi:open="true"
       transform="matrix(1.25,0,0,1.25,0,80)" /><path
       style="opacity:1;fill:#000000;fill-opacity:1;fill-rule:nonzero;stroke:none;stroke-width:0.30000001;stroke-linecap:round;stroke-linejoin:round;stroke-miterlimit:4;stroke-dasharray:none;stroke-dashoffset:0;stroke-opacity:1"
       id="path4188-2"
       sodipodi:type="arc"
       sodipodi:cx="3.1351852"
       sodipodi:cy="-42.5224"
       sodipodi:rx="0.44289869"
       sodipodi:ry="0.4454096"
       sodipodi:start="5.7542284"
       sodipodi:end="5.6674711"
       d="m 3.5175547,-42.747168 a 0.44289869,0.4454096 0 0 1 -0.150628,0.60434 0.44289869,0.4454096 0 0 1 -0.6040591,-0.138339 0.44289869,0.4454096 0 0 1 0.1244268,-0.610341 0.44289869,0.4454096 0 0 1 0.6094561,0.111865"
       sodipodi:open="true"
       transform="matrix(1.25,0,0,1.25,0,80)" /><path
       style="opacity:1;fill:#000000;fill-opacity:1;fill-rule:nonzero;stroke:none;stroke-width:0.30000001;stroke-linecap:round;stroke-linejoin:round;stroke-miterlimit:4;stroke-dasharray:none;stroke-dashoffset:0;stroke-opacity:1"
       id="path4188-9"
       sodipodi:type="arc"
       sodipodi:cx="4.9234018"
       sodipodi:cy="-43.312"
       sodipodi:rx="0.44289869"
       sodipodi:ry="0.4454096"
       sodipodi:start="5.7542284"
       sodipodi:end="5.6674711"
       d="m 5.3057713,-43.536769 a 0.44289869,0.4454096 0 0 1 -0.150628,0.604341 0.44289869,0.4454096 0 0 1 -0.6040591,-0.13834 0.44289869,0.4454096 0 0 1 0.1244268,-0.610341 0.44289869,0.4454096 0 0 1 0.6094561,0.111866"
       sodipodi:open="true"
       transform="matrix(1.25,0,0,1.25,0,80)" /><path
       style="opacity:1;fill:#000000;fill-opacity:1;fill-rule:nonzero;stroke:none;stroke-width:0.30000001;stroke-linecap:round;stroke-linejoin:round;stroke-miterlimit:4;stroke-dasharray:none;stroke-dashoffset:0;stroke-opacity:1"
       id="path4188-1"
       sodipodi:type="arc"
       sodipodi:cx="4.7608366"
       sodipodi:cy="-41.314774"
       sodipodi:rx="0.44289869"
       sodipodi:ry="0.4454096"
       sodipodi:start="5.7542284"
       sodipodi:end="5.6674711"
       d="m 5.1432061,-41.539542 a 0.44289869,0.4454096 0 0 1 -0.1506281,0.604341 0.44289869,0.4454096 0 0 1 -0.604059,-0.13834 0.44289869,0.4454096 0 0 1 0.1244268,-0.610341 0.44289869,0.4454096 0 0 1 0.6094561,0.111866"
       sodipodi:open="true"
       transform="matrix(1.25,0,0,1.25,0,80)" /><path
       style="opacity:1;fill:#000000;fill-opacity:1;fill-rule:nonzero;stroke:none;stroke-width:0.30000001;stroke-linecap:round;stroke-linejoin:round;stroke-miterlimit:4;stroke-dasharray:none;stroke-dashoffset:0;stroke-opacity:1"
       id="path4188-27"
       sodipodi:type="arc"
       sodipodi:cx="3.0655146"
       sodipodi:cy="-40.385826"
       sodipodi:rx="0.44289869"
       sodipodi:ry="0.4454096"
       sodipodi:start="5.7542284"
       sodipodi:end="5.6674711"
       d="m 3.447884,-40.610595 a 0.44289869,0.4454096 0 0 1 -0.150628,0.604341 0.44289869,0.4454096 0 0 1 -0.6040591,-0.13834 0.44289869,0.4454096 0 0 1 0.1244268,-0.610341 0.44289869,0.4454096 0 0 1 0.6094562,0.111866"
       sodipodi:open="true"
       transform="matrix(1.25,0,0,1.25,0,80)" /><path
       style="opacity:1;fill:#000000;fill-opacity:1;fill-rule:nonzero;stroke:none;stroke-width:0.30000001;stroke-linecap:round;stroke-linejoin:round;stroke-miterlimit:4;stroke-dasharray:none;stroke-dashoffset:0;stroke-opacity:1"
       id="path4188-0"
       sodipodi:type="arc"
       sodipodi:cx="1.8114402"
       sodipodi:cy="-41.709576"
       sodipodi:rx="0.44289869"
       sodipodi:ry="0.4454096"
       sodipodi:start="5.7542284"
       sodipodi:end="5.6674711"
       d="m 2.1938097,-41.934344 a 0.44289869,0.4454096 0 0 1 -0.150628,0.60434 0.44289869,0.4454096 0 0 1 -0.6040591,-0.138339 0.44289869,0.4454096 0 0 1 0.1244268,-0.610341 0.44289869,0.4454096 0 0 1 0.6094561,0.111866"
       sodipodi:open="true"
       transform="matrix(1.25,0,0,1.25,0,80)" /><path
       style="opacity:1;fill:#000000;fill-opacity:1;fill-rule:nonzero;stroke:none;stroke-width:0.30000001;stroke-linecap:round;stroke-linejoin:round;stroke-miterlimit:4;stroke-dasharray:none;stroke-dashoffset:0;stroke-opacity:1"
       id="path4188-93"
       sodipodi:type="arc"
       sodipodi:cx="4.4995079"
       sodipodi:cy="-46.571545"
       sodipodi:rx="0.44289869"
       sodipodi:ry="0.4454096"
       sodipodi:start="5.7542284"
       sodipodi:end="5.6674711"
       d="m 4.8818774,-46.796313 a 0.44289869,0.4454096 0 0 1 -0.150628,0.60434 0.44289869,0.4454096 0 0 1 -0.6040591,-0.138339 0.44289869,0.4454096 0 0 1 0.1244268,-0.610341 0.44289869,0.4454096 0 0 1 0.6094561,0.111866"
       sodipodi:open="true"
       transform="matrix(1.25,0,0,1.25,0,80)" /><path
       style="opacity:1;fill:#000000;fill-opacity:1;fill-rule:nonzero;stroke:none;stroke-width:0.30000001;stroke-linecap:round;stroke-linejoin:round;stroke-miterlimit:4;stroke-dasharray:none;stroke-dashoffset:0;stroke-opacity:1"
       id="path4188-6"
       sodipodi:type="arc"
       sodipodi:cx="3.4156847"
       sodipodi:cy="-48.049488"
       sodipodi:rx="0.44289869"
       sodipodi:ry="0.4454096"
       sodipodi:start="5.7542284"
       sodipodi:end="5.6674711"
       d="m 3.7980542,-48.274256 a 0.44289869,0.4454096 0 0 1 -0.1506281,0.60434 0.44289869,0.4454096 0 0 1 -0.604059,-0.13834 0.44289869,0.4454096 0 0 1 0.1244268,-0.610341 0.44289869,0.4454096 0 0 1 0.6094561,0.111866"
       sodipodi:open="true"
       transform="matrix(1.25,0,0,1.25,0,80)" /><path
       transform="matrix(1.25,0,0,-1.25,0,80)"
       style="fill:none;fill-rule:evenodd;stroke:#000000;stroke-width:0.80000001px;stroke-linecap:round;stroke-linejoin:miter;stroke-opacity:1"
       d="m 34.183029,47.092367 c 0,0 -1.839215,-3.021567 -1.707842,-4.335292"
       id="path4180"
       inkscape:connector-curvature="0" /></g></svg>