<?xml version="1.0" encoding="UTF-8" standalone="no"?>
<!-- Generator: Adobe Illustrator 18.0.0, SVG Export Plug-In . SVG Version: 6.00 Build 0)  -->

<svg
   xmlns:dc="http://purl.org/dc/elements/1.1/"
   xmlns:cc="http://creativecommons.org/ns#"
   xmlns:rdf="http://www.w3.org/1999/02/22-rdf-syntax-ns#"
   xmlns:svg="http://www.w3.org/2000/svg"
   xmlns="http://www.w3.org/2000/svg"
   xmlns:sodipodi="http://sodipodi.sourceforge.net/DTD/sodipodi-0.dtd"
   xmlns:inkscape="http://www.inkscape.org/namespaces/inkscape"
   version="1.1"
   id="Capa_1"
   x="0px"
   y="0px"
   viewBox="0 0 80 80"
   style="enable-background:new"
   xml:space="preserve"
   inkscape:version="0.91 r13725"
   sodipodi:docname="water-sprayer.svg"
   inkscape:export-filename="/home/dallasarivle/Documents/plantown/aset/obat2.png"
   inkscape:export-xdpi="90"
   inkscape:export-ydpi="90"
   width="80"
   height="80"><metadata
     id="metadata45"><rdf:RDF><cc:Work
         rdf:about=""><dc:format>image/svg+xml</dc:format><dc:type
           rdf:resource="http://purl.org/dc/dcmitype/StillImage" /><dc:title /></cc:Work></rdf:RDF></metadata><defs
     id="defs43"><filter
       inkscape:collect="always"
       style="color-interpolation-filters:sRGB"
       id="filter4195"><feBlend
         inkscape:collect="always"
         mode="multiply"
         in2="BackgroundImage"
         id="feBlend4197" /></filter></defs><sodipodi:namedview
     pagecolor="#ffffff"
     bordercolor="#666666"
     borderopacity="1"
     objecttolerance="10"
     gridtolerance="10"
     guidetolerance="10"
     inkscape:pageopacity="0"
     inkscape:pageshadow="2"
     inkscape:window-width="1366"
     inkscape:window-height="713"
     id="namedview41"
     showgrid="false"
     inkscape:zoom="2.3342936"
     inkscape:cx="-31.521046"
     inkscape:cy="37.596009"
     inkscape:window-x="0"
     inkscape:window-y="27"
     inkscape:window-maximized="1"
     inkscape:current-layer="layer2" /><g
     id="g11"
     transform="translate(0,-324.405)" /><g
     id="g13"
     transform="translate(0,-324.405)" /><g
     id="g15"
     transform="translate(0,-324.405)" /><g
     id="g17"
     transform="translate(0,-324.405)" /><g
     id="g19"
     transform="translate(0,-324.405)" /><g
     id="g21"
     transform="translate(0,-324.405)" /><g
     id="g23"
     transform="translate(0,-324.405)" /><g
     id="g25"
     transform="translate(0,-324.405)" /><g
     id="g27"
     transform="translate(0,-324.405)" /><g
     id="g29"
     transform="translate(0,-324.405)" /><g
     id="g31"
     transform="translate(0,-324.405)" /><g
     id="g33"
     transform="translate(0,-324.405)" /><g
     id="g35"
     transform="translate(0,-324.405)" /><g
     id="g37"
     transform="translate(0,-324.405)" /><g
     id="g39"
     transform="translate(0,-324.405)" /><g
     inkscape:groupmode="layer"
     id="layer2"
     inkscape:label="warna"
     transform="translate(0,-324.405)"><path
       style="fill:#ffffff;fill-opacity:1;fill-rule:evenodd;stroke:none;stroke-width:1px;stroke-linecap:butt;stroke-linejoin:miter;stroke-opacity:1"
       d="m 60.293636,331.89905 -6.121882,0 0,-3.11547 -17.199567,0 -11.223451,7.94445 0.437278,5.76363 4.664282,0 2.332155,3.11548 -0.583034,1.40195 -1.603355,2.18083 1.311833,2.95971 0,4.6732 -5.247326,6.85404 -4.955813,9.81374 -1.749112,10.28107 0.437278,9.50219 2.623667,5.76362 3.64398,1.86928 22.301137,-0.46731 5.684604,-6.23095 0.583043,-13.5523 -6.413403,-15.88892 -5.538847,-7.16559 0.291521,-5.45207 0.874556,-2.49238 -1.166077,-2.64816 0.291521,-2.02506 1.749102,-0.31154 2.91519,4.36166 4.372769,3.27125 2.477903,-2.64815 -3.643979,-2.49238 -1.894869,-4.05012 2.623668,-1.40196 1.894868,0.15578 0,-3.42703 5.83036,-0.31154 z"
       id="path4185"
       inkscape:connector-curvature="0" /><path
       style="fill:#ffff30;fill-opacity:1;fill-rule:evenodd;stroke:none;stroke-width:1px;stroke-linecap:butt;stroke-linejoin:miter;stroke-opacity:1"
       d="m 48.519701,364.52939 -21.437988,0.27537 -2.988946,5.06684 -2.782822,8.92204 -0.927601,14.53961 0.927601,3.1943 5.565635,4.62625 22.880926,-0.88119 5.771767,-5.61758 -0.618407,-14.64976 -3.710414,-12.66709 z"
       id="path4188"
       inkscape:connector-curvature="0"
       inkscape:export-xdpi="90"
       inkscape:export-ydpi="90" /><path
       style="fill:none;fill-rule:evenodd;stroke:#ffffff;stroke-width:1.4597162;stroke-linecap:round;stroke-linejoin:round;stroke-miterlimit:4;stroke-dasharray:none;stroke-opacity:1"
       d="m 26.769048,372.55598 c 0,0 -6.267638,11.37147 -2.477903,20.56212"
       id="path4190"
       inkscape:connector-curvature="0"
       sodipodi:nodetypes="cc" /></g><g
     inkscape:groupmode="layer"
     id="layer3"
     inkscape:label="bayangan"
     style="opacity:0.47300002;filter:url(#filter4195)"
     transform="translate(0,-324.405)"><path
       style="opacity:0.725;fill:#141515;fill-opacity:1;fill-rule:evenodd;stroke:none;stroke-width:1px;stroke-linecap:butt;stroke-linejoin:miter;stroke-opacity:1"
       d="m 55.337832,393.27387 c 0,0 -14.794549,13.00709 -34.617783,0 l 1.020312,3.34913 4.88293,4.128 23.467215,-0.15577 4.955804,-4.59532 z"
       id="path4192"
       inkscape:connector-curvature="0" /><path
       style="fill:#141515;fill-opacity:1;fill-rule:evenodd;stroke:none;stroke-width:1px;stroke-linecap:butt;stroke-linejoin:miter;stroke-opacity:1"
       d="m 34.734457,351.55939 c 0,0 -3.246618,-2.31312 0,-4.40594 0,0 -0.334969,-7.29734 -8.219612,-5.34221 l 0.515336,-4.02042 11.180957,-8.53992 -2.113508,0.15577 -9.838743,7.63291 -0.291512,5.76362 4.882921,0 1.384716,1.71352 0.583044,2.57026 -1.530474,2.18083 0.291522,2.57027 z"
       id="path4207"
       inkscape:connector-curvature="0" /></g><g
     inkscape:groupmode="layer"
     id="layer1"
     inkscape:label="garis"
     transform="translate(0,-324.405)"><path
       style="opacity:1;fill:#ff0000;fill-opacity:1;fill-rule:nonzero;stroke:none;stroke-width:0.30000001;stroke-linecap:round;stroke-linejoin:round;stroke-miterlimit:4;stroke-dasharray:none;stroke-dashoffset:0;stroke-opacity:1"
       d="m 41.295788,369.90832 0,6.56753 5.928584,0 0,6.49057 -5.928584,0 0,6.41342 -6.073293,0 0,-6.41342 -6.217838,0 0,-6.49057 6.217838,0 0,-6.56753 6.073293,0 z"
       id="rect4152"
       inkscape:connector-curvature="0" /><path
       inkscape:connector-curvature="0"
       id="path5"
       d="m 31.346565,356.42049 0,-4.40582 c -0.594069,-0.63543 -0.961874,-1.51248 -0.961874,-2.47953 0,-1.26759 0.634384,-2.37718 1.579242,-2.99406 -0.174031,-2.60135 -2.061369,-2.88861 -2.356699,-2.91697 l -3.308032,0 c -0.469873,0 -0.850609,-0.40708 -0.850609,-0.90906 l 0,-5.84285 c 0,-0.28908 0.12895,-0.56107 0.346879,-0.73233 l 10.32557,-8.11422 c 0.145791,-0.1149 0.322558,-0.17671 0.50373,-0.17671 l 17.615486,0 c 0.46988,0 0.850607,0.40707 0.850607,0.90905 l 0,2.31754 4.910072,0 c 0.469708,0 0.850609,0.40708 0.850609,0.90905 l 0,6.32502 c 0,0.50198 -0.380901,0.90905 -0.850609,0.90905 l -4.910072,0 0,2.68462 c 0,0.50198 -0.380727,0.90905 -0.850607,0.90905 l -3.344608,0 c 0.513942,3.8613 4.594662,6.18102 4.637876,6.20502 0.399613,0.22053 0.569395,0.73542 0.387539,1.17504 -0.986204,2.38518 -1.947559,2.78698 -2.317069,2.83443 -0.09663,0.0124 -0.243781,0.003 -0.302816,-0.0111 -5.10009,-1.17705 -7.332947,-5.31796 -8.206871,-7.66023 l -0.891779,1.34286 c 0.821009,0.63869 1.357747,1.67083 1.357747,2.8366 0,0.96706 -0.367977,1.84411 -0.961874,2.47972 l 0,4.40582 c 10.062394,12.89747 11.841027,21.63456 11.841027,35.13673 0,4.33219 -2.309409,7.7006 -6.678666,9.7407 -0.107519,0.0501 -0.223372,0.0762 -0.340586,0.0762 l -22.89505,0 c -0.117213,0 -0.23324,-0.026 -0.340587,-0.0762 -4.369082,-2.0401 -6.678319,-5.40851 -6.678319,-9.7407 0,-13.50217 1.778634,-22.23926 11.840343,-35.13673 z m 23.7443,-19.01995 4.059456,0 0,-4.5069 -4.059456,0 0,4.5069 z m -1.733031,13.76326 c 0.136773,-0.12782 0.377664,-0.40798 0.675382,-0.98469 -1.425117,-0.97778 -4.478636,-3.50186 -4.856308,-7.36679 l -2.393794,0 -0.473447,0.71288 c 0.271001,1.05923 1.853645,6.25847 7.048167,7.6386 z m -7.707736,-9.78669 c 0.159578,-0.24017 0.417995,-0.38289 0.693592,-0.38289 l 7.045951,0 0,-11.32717 -16.485862,0 -9.754134,7.66513 0,4.47364 c 0,0 2.522916,5e-4 2.539247,0.002 1.265703,0.0791 3.564572,1.07904 3.93867,4.21782 l 8.93567,0 3.086866,-4.64799 z m -13.564182,8.15803 c 0,0.93305 0.710433,1.6921 1.583327,1.6921 l 8.60682,0 c 0.87273,0 1.58299,-0.75905 1.58299,-1.6921 0,-0.93288 -0.71026,-1.69194 -1.58299,-1.69194 l -8.60682,0 c -0.872894,0 -1.583327,0.75888 -1.583327,1.69194 z m 11.010143,7.79986 c -0.12862,-0.16363 -0.199044,-0.37071 -0.199044,-0.58453 l 0,-3.77002 c -0.201425,0.0413 -0.408466,0.0649 -0.620952,0.0649 l -8.60682,0 c -0.21265,0 -0.420028,-0.0234 -0.621289,-0.0649 l 0,3.77002 c 0,0.21382 -0.07045,0.42072 -0.199044,0.58453 -1.801248,2.2939 -3.331332,4.45036 -4.630902,6.52355 l 19.509289,0 C 46.42739,361.78536 44.89748,359.62872 43.096059,357.335 Z m -16.390945,42.22099 22.53474,0 c 3.648438,-1.75538 5.498006,-4.44563 5.498006,-7.99876 0,-10.04431 -1.017837,-17.36147 -5.917022,-25.88076 l -21.696707,0 c -4.899012,8.51911 -5.916685,15.83645 -5.916685,25.88076 0,3.55313 1.849396,6.24338 5.497668,7.99876 z" /></g></svg>